<?xml version="1.0" standalone="no"?>
<!DOCTYPE svg PUBLIC "-//W3C//DTD SVG 20010904//EN"
 "http://www.w3.org/TR/2001/REC-SVG-20010904/DTD/svg10.dtd">
<svg version="1.0" xmlns="http://www.w3.org/2000/svg"
 width="300.000000pt" height="200.000000pt" viewBox="0 0 300.000000 200.000000"
 preserveAspectRatio="xMidYMid meet">
<metadata>
Created by potrace 1.10, written by Peter Selinger 2001-2011
</metadata>
<g transform="translate(0.000000,200.000000) scale(0.050000,-0.050000)"
fill="#ffffff" stroke="none">
<path d="M1400 3318 c-252 -27 -360 -87 -360 -198 0 -94 16 -98 180 -40 335
118 560 15 560 -256 l0 -106 -95 16 c-430 73 -705 -68 -721 -370 -22 -406 454
-568 784 -267 31 29 61 44 65 33 53 -143 114 -173 220 -108 79 49 78 40 27
173 -34 90 -40 154 -40 442 0 587 -135 735 -620 681z m307 -751 l77 -13 -8
-117 c-24 -334 -556 -428 -556 -98 0 204 164 281 487 228z"/>
<path d="M4435 3319 c-520 -129 -468 -608 84 -779 213 -66 281 -117 281 -213
0 -176 -302 -242 -599 -129 -125 47 -141 42 -141 -44 2 -303 784 -280 941 27
130 256 6 443 -370 561 -198 62 -311 136 -311 206 0 153 210 230 440 162 204
-61 272 -24 201 108 -41 76 -372 140 -526 101z"/>
<path d="M2171 3281 c-10 -15 117 -449 335 -1151 l44 -140 125 -6 c114 -5 127
-2 144 40 23 56 221 903 221 946 0 16 9 30 20 30 11 0 20 -16 20 -35 0 -46
212 -936 229 -964 28 -45 250 -25 271 24 36 84 380 1210 380 1242 0 41 -203
48 -235 8 -10 -14 -76 -250 -145 -525 -69 -275 -129 -504 -133 -508 -9 -12
-14 8 -137 538 -122 530 -117 519 -253 520 -125 0 -122 6 -237 -491 -56 -242
-109 -470 -118 -509 -21 -88 -15 -105 -153 460 -63 259 -123 486 -133 505 -19
38 -223 52 -245 16z"/>
<path d="M4770 1667 c-191 -29 -420 -145 -376 -189 10 -10 95 -8 197 4 438 54
490 0 358 -372 -83 -233 -87 -253 -54 -264 110 -39 381 546 337 725 -20 78
-259 127 -462 96z"/>
<path d="M769 1559 c-18 -31 18 -66 219 -217 1006 -749 2303 -887 3405 -363
543 258 631 463 117 272 -1106 -410 -2390 -328 -3472 221 -221 113 -247 121
-269 87z"/>
</g>
</svg>
