<?xml version="1.0" standalone="no"?>
<!DOCTYPE svg PUBLIC "-//W3C//DTD SVG 20010904//EN"
 "http://www.w3.org/TR/2001/REC-SVG-20010904/DTD/svg10.dtd">
<svg version="1.0" xmlns="http://www.w3.org/2000/svg"
 width="900.000000pt" height="513.000000pt" viewBox="0 0 900.000000 513.000000"
 preserveAspectRatio="xMidYMid meet">
<metadata>
Created by potrace 1.10, written by Peter Selinger 2001-2011
</metadata>
<g transform="translate(0.000000,513.000000) scale(0.100000,-0.100000)"
fill="#ffffff" stroke="none">
<path d="M6380 4775 c-14 -8 -41 -22 -61 -32 -19 -10 -52 -37 -72 -59 -71 -79
-67 -21 -70 -1098 l-2 -971 34 -72 c28 -61 42 -77 90 -110 55 -37 58 -38 146
-38 81 0 94 3 131 27 43 28 96 88 113 129 26 60 29 168 25 869 -7 1197 -6
1159 -30 1200 -35 63 -87 120 -113 127 -14 3 -33 11 -41 18 -25 20 -121 27
-150 10z m190 -125 l50 -51 0 -1010 c0 -945 -1 -1011 -17 -1037 -29 -44 -65
-70 -114 -82 -87 -21 -167 19 -209 105 -20 40 -20 62 -20 1011 0 948 0 971 20
1009 11 22 37 55 57 72 35 30 43 33 110 33 l72 0 51 -50z"/>
<path d="M2451 4766 c-7 -9 -22 -16 -32 -16 -21 0 -93 -70 -113 -110 -8 -14
-16 -56 -20 -95 -10 -114 -8 -1843 2 -1926 15 -122 88 -207 192 -224 25 -4 53
-12 63 -17 13 -7 27 -3 51 11 18 12 40 21 47 21 24 0 109 80 131 124 13 25 22
63 24 101 4 95 6 801 4 1393 l-1 543 -23 43 c-65 121 -115 157 -231 164 -66 3
-83 1 -94 -12z m169 -81 c7 -8 18 -15 24 -15 6 0 26 -22 44 -49 l32 -50 0
-986 0 -985 -24 -38 c-54 -84 -116 -112 -203 -91 -44 10 -62 21 -94 57 l-39
45 0 1013 0 1013 50 51 51 50 73 0 c53 0 77 -4 86 -15z"/>
<path d="M1543 4110 c-59 -5 -81 -12 -126 -43 -47 -31 -61 -47 -93 -112 l-37
-77 -1 -451 -1 -452 23 -36 c12 -20 22 -44 22 -53 0 -23 67 -94 109 -115 20
-10 58 -23 85 -30 122 -30 266 79 292 220 9 53 8 884 -2 937 -11 59 -40 106
-92 151 -28 22 -54 41 -60 41 -5 0 -15 7 -22 15 -7 8 -15 14 -19 14 -3 -1 -38
-5 -78 -9z m90 -87 c59 -33 95 -82 102 -137 4 -28 5 -256 3 -506 -3 -488 0
-458 -53 -511 -28 -29 -93 -59 -127 -59 -58 0 -135 56 -169 122 -18 35 -19 64
-19 492 0 408 2 459 17 493 20 44 61 93 79 93 6 0 17 7 24 15 17 21 104 20
143 -2z"/>
<path d="M3419 4093 c-58 -17 -131 -93 -154 -158 -22 -67 -23 -950 0 -1016 21
-61 90 -134 145 -154 91 -33 96 -33 164 -17 60 14 73 22 121 73 30 31 56 67
59 80 25 128 27 187 23 559 -3 217 -9 418 -14 445 -13 74 -32 103 -97 154 -56
44 -61 46 -130 47 -39 1 -92 -5 -117 -13z m179 -77 c20 -13 48 -37 62 -52 l25
-29 5 -470 c3 -297 1 -485 -5 -512 -17 -72 -102 -143 -172 -143 -64 0 -148 64
-171 130 -17 46 -17 923 -1 971 37 108 168 162 257 105z"/>
<path d="M5389 4103 c-14 -2 -52 -26 -84 -53 -44 -37 -65 -64 -82 -106 l-24
-55 3 -472 3 -472 24 -44 c39 -74 109 -134 178 -154 56 -15 95 -14 118 3 6 4
24 11 42 15 45 9 133 93 133 127 0 15 8 34 18 44 16 16 17 53 17 485 0 361 -3
471 -12 481 -7 6 -13 24 -13 39 0 39 -63 115 -120 144 -48 24 -119 31 -201 18z
m169 -90 c44 -33 63 -57 79 -98 16 -42 18 -928 2 -976 -22 -65 -106 -129 -171
-129 -72 0 -163 76 -173 145 -4 22 -5 252 -3 510 l3 470 25 29 c70 81 168 101
238 49z"/>
<path d="M7346 4103 c-55 -8 -126 -70 -168 -146 l-23 -42 0 -485 0 -485 30
-54 c34 -61 103 -126 143 -134 15 -3 48 -10 74 -16 38 -8 56 -7 98 8 58 21
147 101 157 141 3 14 12 38 20 53 12 24 14 108 14 478 0 431 -1 452 -21 512
-17 51 -31 71 -76 110 -30 27 -69 53 -87 58 -32 9 -106 10 -161 2z m162 -87
c44 -28 57 -42 83 -93 18 -35 19 -64 19 -498 l0 -460 -29 -50 c-21 -37 -42
-58 -79 -78 -59 -32 -95 -34 -148 -7 -49 25 -65 38 -89 75 -18 29 -19 51 -18
510 1 264 2 489 2 500 1 24 55 83 97 107 45 25 117 23 162 -6z"/>
<path d="M542 3618 c-90 -10 -130 -38 -190 -133 -16 -26 -17 -31 -30 -90 -11
-50 -9 -368 2 -433 10 -59 78 -167 111 -178 11 -3 27 -12 35 -19 35 -29 170
-39 186 -14 3 5 12 9 20 9 18 0 107 73 128 106 34 51 48 169 44 369 -4 180 -6
193 -30 240 -26 51 -46 71 -107 114 -44 31 -89 39 -169 29z m72 -67 c3 -5 18
-12 33 -16 38 -9 81 -51 104 -104 17 -38 19 -67 19 -246 0 -221 -6 -252 -58
-308 -34 -37 -93 -67 -130 -67 -39 0 -102 32 -140 71 -40 41 -45 78 -40 346 3
184 5 213 21 230 9 11 17 23 17 27 0 12 43 45 60 46 8 0 26 7 40 15 28 16 66
19 74 6z"/>
<path d="M4380 3602 c-52 -25 -117 -99 -135 -151 -11 -36 -15 -98 -15 -278 -1
-266 2 -278 90 -366 39 -38 61 -50 113 -64 l65 -17 69 27 c75 29 146 92 156
137 3 14 10 43 16 65 15 59 13 397 -3 472 -16 73 -50 122 -109 160 -35 22 -56
27 -127 29 -65 3 -93 0 -120 -14z m171 -61 c45 -20 72 -45 102 -93 15 -24 17
-59 17 -261 0 -209 -2 -237 -19 -270 -41 -81 -151 -129 -214 -95 -56 31 -97
62 -97 73 0 7 -7 18 -15 25 -13 10 -15 52 -15 256 0 240 0 245 24 282 29 47
48 63 100 83 55 22 66 22 117 0z"/>
<path d="M8270 3591 c-25 -16 -59 -46 -76 -67 -53 -66 -65 -129 -65 -344 0
-236 12 -285 96 -367 45 -44 63 -54 118 -67 60 -14 99 -13 122 4 6 4 24 11 40
14 42 9 88 55 127 123 l33 58 0 235 c0 271 -5 291 -89 371 -66 61 -68 62 -171
65 -84 3 -93 1 -135 -25z m165 -40 c3 -5 18 -12 33 -16 28 -6 72 -37 72 -51 0
-4 8 -16 18 -27 15 -17 17 -46 20 -230 5 -268 0 -305 -40 -346 -38 -39 -102
-71 -140 -71 -62 0 -137 58 -169 129 -17 39 -19 66 -18 249 1 223 9 260 64
312 44 42 145 74 160 51z"/>
<path d="M4015 1964 c-38 -6 -83 -16 -98 -23 -16 -6 -41 -11 -57 -11 -38 0
-107 -28 -114 -46 -3 -8 -14 -14 -25 -14 -39 0 -161 -123 -198 -200 -35 -72
-46 -128 -46 -245 -1 -110 2 -125 26 -176 41 -85 103 -165 155 -201 26 -17 51
-38 55 -45 4 -7 16 -13 25 -13 10 0 27 -7 38 -15 22 -14 81 -38 144 -56 50
-15 63 -31 55 -67 l-6 -30 -143 4 c-79 2 -154 8 -168 13 -36 13 -93 -6 -134
-44 -29 -27 -33 -38 -39 -108 -4 -43 -5 -114 -3 -157 4 -66 9 -84 31 -114 17
-21 39 -37 59 -41 18 -4 40 -13 48 -20 24 -20 73 -25 285 -26 181 -2 207 0
275 20 78 24 147 48 166 60 38 21 154 117 154 126 0 6 14 24 30 40 17 16 30
36 30 45 0 9 4 20 9 25 15 15 43 123 51 195 5 52 3 74 -12 109 -10 25 -16 51
-13 59 6 17 -44 121 -89 183 -30 40 -103 99 -169 136 -50 28 -141 63 -163 63
-19 0 -24 5 -24 25 0 41 32 50 168 50 l124 0 28 32 c40 44 51 126 42 299 -2
31 -49 92 -87 111 -11 6 -42 14 -68 17 -26 4 -64 14 -84 22 -19 9 -65 15 -101
15 -37 0 -71 4 -77 8 -5 4 -41 2 -80 -5z m235 -99 c30 -8 81 -15 112 -15 31 0
60 -5 64 -11 9 -16 12 -319 3 -325 -5 -3 -23 3 -41 13 -18 9 -58 20 -88 24
-30 4 -79 10 -107 14 -81 12 -196 -12 -233 -48 -38 -38 -44 -60 -26 -96 25
-48 94 -87 196 -111 60 -14 137 -45 208 -85 55 -30 130 -115 164 -185 40 -84
42 -258 2 -332 -8 -14 -14 -33 -14 -42 0 -9 -3 -16 -7 -16 -5 0 -18 -17 -31
-38 -25 -39 -94 -97 -149 -125 -18 -9 -46 -24 -62 -32 -16 -8 -38 -15 -49 -15
-11 0 -36 -7 -57 -16 -32 -13 -72 -15 -249 -11 -189 5 -245 9 -311 22 -19 4
-20 12 -19 172 l0 168 34 -3 c18 -1 39 -7 47 -13 15 -13 101 -26 226 -35 176
-13 296 38 297 127 0 27 -7 42 -32 66 -44 41 -118 76 -188 90 -14 2 -38 10
-55 18 -159 68 -242 133 -296 232 -30 56 -31 62 -31 180 0 96 3 126 16 144 9
13 16 30 16 37 0 20 84 126 117 148 40 27 66 42 83 50 8 3 29 12 45 19 99 43
310 58 415 30z"/>
<path d="M1810 1963 c-25 -2 -59 -10 -77 -18 -17 -8 -46 -15 -65 -15 -42 0
-113 -25 -146 -50 -14 -11 -32 -20 -42 -20 -10 0 -28 -8 -41 -17 -13 -10 -31
-22 -40 -28 -54 -34 -111 -84 -157 -138 -62 -72 -136 -217 -152 -297 -6 -30
-16 -71 -23 -90 -17 -54 -18 -268 -1 -302 8 -15 14 -38 14 -52 0 -34 40 -156
51 -156 5 0 9 -6 9 -13 0 -25 55 -114 104 -168 97 -107 217 -190 316 -218 25
-7 64 -22 88 -34 40 -20 57 -22 250 -22 l207 0 65 32 c123 60 142 95 143 262
0 160 -18 223 -73 251 -41 20 -107 32 -115 21 -8 -15 -157 -32 -231 -28 -81 4
-124 25 -188 92 -61 63 -80 114 -71 198 3 39 13 80 21 91 8 11 14 28 14 37 0
21 80 92 129 115 51 25 147 33 204 19 26 -7 58 -10 71 -8 13 3 30 -2 40 -12
12 -12 21 -14 28 -7 5 5 27 8 48 5 34 -5 41 -1 73 33 41 45 51 97 49 244 -2
117 -12 150 -63 204 -38 40 -49 46 -84 46 -22 0 -58 9 -81 19 -42 19 -187 32
-274 24z m230 -98 c30 -8 73 -15 95 -15 22 0 55 -9 73 -20 27 -17 32 -25 26
-43 -11 -33 -7 -255 5 -306 5 -25 8 -49 5 -53 -3 -4 -34 8 -70 27 -35 19 -72
35 -82 35 -9 0 -35 7 -57 15 -53 19 -166 19 -212 0 -19 -8 -46 -15 -58 -15
-12 0 -28 -7 -35 -15 -7 -8 -18 -15 -25 -15 -19 0 -109 -91 -130 -131 -55
-106 -56 -251 -3 -366 23 -50 94 -123 141 -145 17 -9 48 -24 67 -33 29 -13 58
-16 160 -13 125 4 193 20 231 54 8 8 28 14 43 14 l28 0 -8 -62 c-4 -35 -7
-117 -6 -182 3 -147 0 -156 -42 -156 -18 0 -53 -7 -78 -15 -36 -13 -80 -15
-214 -12 -207 4 -255 17 -441 116 -33 17 -187 171 -204 204 -62 116 -83 173
-103 277 -20 106 -20 182 -1 246 8 27 15 63 15 79 0 17 7 39 15 49 8 11 15 30
15 42 0 12 7 27 15 34 8 7 15 18 15 25 0 37 107 166 190 230 80 62 229 134
278 136 15 0 45 6 67 14 55 18 218 18 285 0z"/>
<path d="M5535 1960 c-22 -5 -53 -13 -68 -19 -16 -6 -42 -11 -59 -11 -31 0
-84 -14 -123 -32 -22 -10 -51 -26 -137 -76 -70 -41 -222 -188 -231 -223 -4
-14 -18 -42 -32 -63 -14 -20 -25 -45 -25 -55 0 -10 -12 -46 -26 -81 -49 -121
-54 -322 -11 -490 47 -188 151 -332 325 -452 59 -40 129 -78 146 -78 8 0 49
-12 92 -26 61 -21 106 -28 199 -31 210 -9 339 20 418 95 l37 36 0 156 c0 194
-12 239 -70 265 -41 18 -78 17 -185 -5 -84 -17 -200 -9 -256 18 -25 12 -66 47
-96 82 -44 51 -53 68 -58 115 -4 30 -4 80 0 112 6 52 12 62 68 119 34 36 78
70 101 80 65 26 146 34 202 19 27 -7 87 -15 134 -19 l85 -7 28 30 c35 37 47
101 47 240 -1 178 -23 226 -120 256 -30 9 -68 21 -85 27 -16 5 -59 11 -95 14
-36 2 -87 5 -115 8 -27 2 -68 0 -90 -4z m250 -95 c33 -8 76 -15 95 -15 19 0
46 -7 59 -14 23 -13 23 -14 25 -209 2 -154 0 -197 -10 -197 -7 0 -15 4 -18 9
-9 14 -84 51 -104 51 -9 0 -35 7 -57 15 -112 40 -299 -4 -389 -91 -41 -40 -86
-106 -86 -128 0 -7 -7 -27 -15 -42 -31 -59 -9 -244 34 -287 6 -6 11 -16 11
-23 0 -19 118 -123 148 -130 15 -4 36 -13 47 -20 14 -10 55 -14 142 -14 125 0
144 4 235 51 66 34 64 39 61 -173 -1 -106 -2 -196 -2 -200 -1 -5 -16 -8 -34
-8 -18 0 -54 -7 -79 -15 -36 -13 -80 -15 -214 -12 -193 4 -222 10 -364 77
-127 59 -260 189 -313 305 -65 139 -71 169 -71 345 0 169 13 234 65 330 5 8
18 34 31 58 24 46 118 149 183 199 50 38 152 93 174 93 10 0 26 7 37 15 10 8
30 15 44 15 14 0 48 7 75 14 66 19 215 19 290 1z"/>
<path d="M6953 1956 c-24 -6 -43 -13 -43 -18 0 -4 -19 -8 -42 -8 -39 0 -121
-31 -134 -51 -3 -5 -16 -9 -30 -9 -60 0 -254 -168 -319 -276 -80 -131 -112
-229 -125 -383 -6 -62 -13 -117 -16 -122 -3 -5 -1 -17 5 -27 5 -10 14 -47 19
-83 9 -62 17 -90 51 -174 45 -117 207 -303 313 -360 29 -16 58 -35 63 -42 6
-7 42 -21 82 -31 39 -10 78 -24 87 -31 8 -7 20 -10 25 -6 6 3 28 1 50 -5 52
-14 219 -14 306 0 92 14 189 48 265 91 8 5 25 14 38 19 36 15 153 116 185 158
51 68 107 156 107 167 0 7 8 20 19 29 10 9 21 34 25 54 15 92 19 107 30 114 7
4 12 62 14 152 4 121 2 148 -12 167 -9 13 -16 40 -16 61 0 40 -5 56 -57 163
-54 112 -135 217 -214 276 -55 41 -155 99 -172 99 -8 0 -20 7 -27 15 -7 8 -23
15 -36 15 -12 0 -26 5 -29 10 -3 6 -17 7 -30 4 -13 -3 -38 1 -57 9 -18 8 -46
19 -63 23 -43 11 -212 11 -262 0z m302 -95 c234 -51 419 -195 515 -401 12 -25
28 -58 35 -73 8 -16 15 -41 15 -56 0 -15 7 -50 15 -77 19 -63 19 -167 0 -230
-8 -27 -15 -61 -15 -76 0 -14 -7 -39 -15 -55 -7 -15 -23 -48 -35 -73 -35 -75
-79 -138 -136 -196 -46 -46 -143 -116 -189 -137 -22 -10 -53 -25 -68 -33 -16
-8 -37 -14 -47 -14 -9 0 -34 -7 -53 -15 -50 -21 -340 -21 -377 0 -14 8 -36 15
-50 15 -14 0 -34 7 -44 15 -11 8 -27 15 -37 15 -9 0 -22 7 -29 15 -7 8 -19 15
-27 15 -17 0 -126 80 -166 123 -71 75 -167 229 -167 269 0 10 -8 33 -17 51
-14 26 -17 61 -17 197 0 136 3 171 17 197 9 18 17 43 17 56 0 14 7 30 15 37 8
7 15 21 15 31 0 10 5 21 11 24 5 4 14 17 20 28 5 12 15 31 21 42 23 35 184
194 209 205 13 6 44 22 68 35 24 14 52 25 61 25 9 0 25 7 36 15 10 8 33 15 49
15 17 1 48 8 70 15 49 17 215 14 300 -4z"/>
<path d="M7010 1500 c-8 -5 -27 -10 -41 -10 -15 0 -32 -7 -39 -15 -7 -8 -18
-15 -26 -15 -23 0 -119 -103 -141 -150 -25 -54 -43 -128 -43 -173 1 -42 24
-134 44 -173 22 -42 94 -124 120 -135 12 -5 28 -13 36 -18 97 -57 243 -57 340
0 8 5 24 13 35 18 22 10 105 95 105 108 0 5 5 14 11 20 43 43 67 246 34 289
-8 10 -15 29 -15 40 0 12 -7 27 -15 34 -8 7 -15 18 -15 25 0 16 -107 115 -124
115 -6 0 -17 5 -24 12 -30 30 -207 51 -242 28z m168 -106 c77 -25 142 -93 171
-178 33 -98 13 -173 -68 -259 -63 -67 -110 -89 -188 -86 -99 4 -163 35 -208
104 -20 29 -42 59 -50 65 -11 9 -15 35 -15 97 0 72 3 89 23 116 42 58 125 134
159 144 50 16 120 15 176 -3z"/>
<path d="M2767 1916 c-82 -16 -112 -47 -127 -134 -12 -76 -9 -1263 5 -1322 9
-43 39 -78 84 -97 58 -25 264 -33 285 -12 6 5 19 9 30 9 25 0 84 53 96 86 10
25 26 178 23 204 -2 8 -3 256 -3 550 0 294 -4 559 -9 588 -6 42 -16 62 -43 89
-30 30 -44 36 -104 43 -89 12 -164 11 -237 -4z m309 -69 c6 -6 5 -1409 0
-1415 -3 -2 -84 -4 -181 -4 l-176 0 0 711 c0 391 0 712 1 714 0 4 352 -2 356
-6z"/>
</g>
</svg>
