<?xml version="1.0" standalone="no"?>
<!DOCTYPE svg PUBLIC "-//W3C//DTD SVG 20010904//EN"
 "http://www.w3.org/TR/2001/REC-SVG-20010904/DTD/svg10.dtd">
<svg version="1.0" xmlns="http://www.w3.org/2000/svg"
 width="256.000000pt" height="256.000000pt" viewBox="0 0 256.000000 256.000000"
 preserveAspectRatio="xMidYMid meet">
<metadata>
Created by potrace 1.10, written by Peter Selinger 2001-2011
</metadata>
<g transform="translate(0.000000,256.000000) scale(0.100000,-0.100000)"
fill="#ffffff" stroke="none">
<path d="M1183 1960 l2 -95 105 0 105 0 3 95 3 95 -110 0 -109 0 1 -95z m207
9 c0 -93 -6 -99 -112 -99 l-84 0 -3 85 -2 85 100 0 101 0 0 -71z"/>
<path d="M654 1807 c-3 -8 -4 -52 -2 -98 l3 -84 107 -3 c99 -2 107 -1 101 15
-4 10 -8 12 -11 5 -2 -8 -31 -12 -88 -12 l-85 0 3 88 3 87 88 1 c48 1 91 5 94
8 4 3 -42 6 -101 6 -80 0 -108 -3 -112 -13z m13 -134 c-2 -27 -3 -5 -3 47 0
52 1 74 3 48 2 -27 2 -69 0 -95z"/>
<path d="M921 1730 c-1 -49 2 -90 6 -90 4 0 6 27 5 61 -2 33 -1 72 2 85 7 25
8 26 101 22 l95 -3 0 -86 0 -87 -102 -1 c-56 -1 -105 -4 -107 -7 -3 -3 44 -3
104 -2 l110 3 3 98 3 97 -109 0 -109 0 -2 -90z"/>
<path d="M1181 1730 c-1 -57 2 -90 8 -90 7 0 11 32 11 85 l0 86 95 -2 95 -2 0
-88 0 -88 -107 -4 -108 -3 110 0 110 1 3 98 3 97 -109 0 -109 0 -2 -90z"/>
<path d="M853 1725 c0 -38 2 -53 4 -32 2 20 2 52 0 70 -2 17 -4 1 -4 -38z"/>
<path d="M1842 1708 c-53 -110 -59 -216 -17 -299 9 -17 15 -32 13 -34 -2 -2
-27 -10 -57 -19 -48 -14 -145 -16 -788 -16 l-734 0 -24 -25 c-28 -27 -29 -35
-15 -160 29 -254 137 -453 287 -528 132 -67 330 -104 498 -93 293 19 499 91
678 236 119 97 240 263 304 419 l28 69 59 6 c111 11 202 68 249 155 l28 51
-33 20 c-50 31 -105 42 -184 38 l-72 -3 -12 40 c-18 62 -67 131 -120 170 -26
19 -50 35 -52 35 -3 0 -19 -28 -36 -62z m110 -20 c42 -46 78 -107 78 -133 0
-8 8 -23 18 -33 15 -15 33 -18 98 -16 43 1 88 -3 99 -9 11 -6 23 -11 27 -12 4
0 16 -6 27 -14 19 -14 19 -16 4 -45 -18 -35 -74 -89 -110 -105 -56 -26 -71
-31 -128 -38 -66 -9 -61 -4 -114 -123 -25 -56 -69 -126 -148 -240 -32 -47
-124 -131 -135 -124 -6 4 -8 3 -5 -3 4 -6 -8 -22 -26 -35 -34 -26 -165 -100
-169 -97 -2 1 -14 -4 -28 -11 -14 -8 -29 -15 -35 -17 -5 -1 -36 -11 -67 -22
-75 -26 -101 -31 -243 -45 -208 -21 -350 -9 -490 41 -87 31 -201 106 -189 125
3 4 -1 8 -8 8 -11 0 -81 91 -84 109 0 3 -9 24 -19 46 -52 119 -87 389 -53 412
7 4 353 11 768 14 415 4 763 8 773 10 9 2 29 13 43 24 l27 21 -18 35 c-12 21
-20 63 -23 114 -3 72 -1 87 25 142 34 76 50 79 105 21z"/>
<path d="M394 1567 c-3 -8 -4 -52 -2 -98 l3 -84 109 0 c89 0 110 3 113 15 4
13 3 13 -6 0 -8 -11 -10 11 -9 80 l2 95 6 -75 7 -75 -1 75 -1 75 -108 3 c-84
2 -109 0 -113 -11z m24 -74 l2 77 85 0 85 0 0 -90 0 -90 -85 0 c-61 0 -85 3
-85 13 0 8 -4 7 -10 -3 -7 -10 -9 16 -8 80 l2 95 6 -80 6 -80 2 78z"/>
<path d="M654 1567 c-3 -8 -4 -52 -2 -98 l3 -84 105 -3 105 -3 0 101 0 100
-103 0 c-76 0 -104 -3 -108 -13z m196 -87 l0 -91 -95 2 -95 2 0 88 0 89 95 0
95 0 0 -90z"/>
<path d="M923 1503 l0 -78 6 70 6 70 98 2 97 1 0 -88 0 -88 -102 -1 c-56 -1
-105 -4 -107 -7 -3 -3 44 -3 104 -2 l110 3 0 95 0 95 -106 3 -106 3 0 -78z"/>
<path d="M1181 1489 c-1 -61 1 -89 8 -84 6 3 11 41 11 86 l0 80 95 -2 95 -2 0
-87 0 -88 -102 -1 c-56 -1 -105 -4 -107 -7 -3 -3 44 -3 104 -2 l110 3 3 98 3
97 -109 0 -109 0 -2 -91z"/>
<path d="M1442 1483 l3 -98 105 0 105 0 3 98 3 97 -111 0 -111 0 3 -97z m208
-3 l0 -90 -99 0 -98 0 -2 90 -2 90 100 0 101 0 0 -90z"/>
</g>
</svg>
