<?xml version="1.0" standalone="no"?>
<!DOCTYPE svg PUBLIC "-//W3C//DTD SVG 20010904//EN"
 "http://www.w3.org/TR/2001/REC-SVG-20010904/DTD/svg10.dtd">
<svg version="1.0" xmlns="http://www.w3.org/2000/svg"
 width="300.000000pt" height="368.000000pt" viewBox="0 0 300.000000 368.000000"
 preserveAspectRatio="xMidYMid meet">
<metadata>
Created by potrace 1.10, written by Peter Selinger 2001-2011
</metadata>
<g transform="translate(0.000000,368.000000) scale(0.100000,-0.100000)"
fill="#ffffff" stroke="none">
<path d="M362 2851 c-29 -5 -55 -11 -58 -14 -2 -2 139 -7 313 -10 487 -9 685
-37 931 -133 l68 -27 -4 -57 c-5 -73 19 -158 55 -195 42 -42 88 -57 198 -66
70 -5 121 -15 170 -34 39 -15 77 -28 85 -29 8 -1 31 -12 50 -24 42 -27 51 -27
43 -4 -4 9 14 -2 40 -25 26 -24 49 -43 53 -43 3 0 3 12 -1 27 -6 24 -2 22 35
-19 34 -40 45 -46 68 -42 24 4 31 -1 62 -52 19 -31 34 -60 33 -65 -4 -13 65
-61 97 -68 l30 -6 -34 -27 -34 -27 -37 35 c-21 19 -60 46 -89 61 -68 34 -86
51 -86 82 0 29 7 26 -233 123 -146 59 -148 60 -247 60 -89 0 -107 -3 -155 -27
-136 -66 -205 -255 -141 -390 46 -100 115 -155 216 -173 30 -6 114 -13 186
-16 219 -10 387 -48 534 -121 136 -68 214 -144 286 -278 41 -76 45 -50 6 36
-68 147 -206 255 -417 326 -125 41 -233 59 -425 71 -91 5 -182 14 -202 20 -57
16 -118 69 -149 129 -76 143 4 341 156 382 49 14 208 6 250 -11 17 -7 48 -20
70 -30 22 -9 84 -34 137 -56 67 -27 98 -44 98 -55 0 -28 40 -69 93 -96 28 -14
73 -43 98 -65 53 -44 61 -43 113 11 35 36 28 50 -40 81 -25 10 -47 27 -51 37
-3 10 -31 55 -60 100 -61 92 -147 166 -285 246 -73 42 -205 94 -215 84 -2 -2
44 -27 102 -55 57 -28 132 -69 164 -92 90 -60 186 -143 173 -148 -7 -2 -37 19
-67 46 -88 81 -269 192 -355 217 -22 6 -23 6 -10 -8 8 -8 45 -32 83 -51 106
-58 159 -93 147 -101 -6 -4 -23 1 -38 11 -15 10 -45 24 -67 31 -22 6 -71 21
-110 32 -38 12 -97 21 -130 21 -77 0 -126 14 -165 46 -45 39 -53 60 -59 164
l-6 95 -45 22 c-116 57 -304 105 -495 128 -149 18 -652 29 -733 16z"/>
<path d="M311 2811 c9 -6 117 -17 240 -26 359 -25 587 -59 794 -117 l80 -23
-120 -7 c-485 -29 -622 -42 -870 -83 -176 -30 -214 -39 -240 -60 -20 -16 -20
-16 0 -11 60 16 416 68 585 86 184 19 765 48 773 39 3 -2 7 -15 10 -29 l6 -25
-352 0 c-353 0 -408 -3 -752 -46 -231 -28 -289 -39 -276 -52 9 -9 236 11 431
38 25 3 146 16 205 20 75 7 529 17 525 12 -3 -2 -58 -19 -124 -36 -325 -87
-649 -223 -786 -332 -77 -60 -59 -64 33 -7 219 137 563 268 879 337 113 24
228 37 228 25 0 -5 3 -19 6 -31 5 -18 2 -21 -13 -17 -29 8 -250 -23 -382 -52
-62 -14 -166 -43 -230 -64 -184 -61 -538 -227 -548 -257 -6 -18 60 7 166 62
212 110 541 223 726 250 116 17 188 25 239 27 l59 2 20 -52 20 -52 -61 -56
c-92 -82 -132 -185 -132 -334 0 -89 29 -166 89 -232 92 -103 182 -138 366
-144 225 -7 309 -29 438 -113 89 -59 122 -92 192 -197 56 -83 97 -170 136
-289 30 -90 37 -59 10 40 -62 226 -205 415 -388 512 -103 55 -176 71 -354 79
-161 6 -233 22 -299 64 -103 66 -153 146 -159 258 -8 169 45 293 158 367 23
16 40 33 37 39 -50 117 -78 192 -88 240 -12 56 -14 59 -58 78 -136 59 -430
124 -689 153 -179 19 -553 31 -530 16z"/>
<path d="M2442 2078 c3 -7 13 -15 24 -17 16 -3 17 -1 5 13 -16 19 -34 21 -29
4z"/>
<path d="M2357 1524 c73 -55 100 -82 165 -163 87 -109 163 -271 184 -396 10
-59 23 -78 24 -33 1 134 -101 357 -230 501 -28 31 -48 57 -43 57 5 0 44 -18
88 -41 85 -43 179 -128 229 -208 33 -51 41 -53 21 -3 -56 134 -205 250 -390
302 -97 28 -104 25 -48 -16z"/>
</g>
</svg>
