<?xml version="1.0" standalone="no"?>
<!DOCTYPE svg PUBLIC "-//W3C//DTD SVG 20010904//EN"
 "http://www.w3.org/TR/2001/REC-SVG-20010904/DTD/svg10.dtd">
<svg version="1.0" xmlns="http://www.w3.org/2000/svg"
 width="240.000000pt" height="240.000000pt" viewBox="0 0 240.000000 240.000000"
 preserveAspectRatio="xMidYMid meet">
<metadata>
Created by potrace 1.10, written by Peter Selinger 2001-2011
</metadata>
<g transform="translate(0.000000,240.000000) scale(0.100000,-0.100000)"
fill="#ffffff" stroke="none">
<path d="M1127 2390 c-108 -28 -198 -106 -239 -209 -20 -52 -23 -77 -28 -326
-6 -317 -3 -306 -137 -488 -167 -227 -241 -445 -212 -626 13 -87 11 -90 -92
-146 -92 -51 -104 -73 -95 -174 5 -57 3 -87 -9 -120 -19 -55 -19 -84 0 -122
25 -47 70 -69 141 -69 67 0 182 -27 259 -60 63 -27 141 -36 188 -21 20 7 52
30 72 52 43 48 88 59 237 59 104 0 238 -17 238 -31 0 -18 58 -73 95 -90 89
-41 144 -21 268 97 66 63 110 96 165 122 79 38 107 68 118 129 9 45 -3 87 -37
129 -16 21 -37 62 -45 93 -9 31 -21 65 -27 76 -6 11 -12 79 -12 155 -1 105 -6
154 -24 220 -41 159 -145 339 -278 483 -24 26 -56 73 -71 105 -26 55 -27 63
-28 247 -1 105 -6 211 -12 236 -30 123 -103 220 -194 259 -58 25 -180 35 -241
20z m212 -340 c23 -12 51 -80 51 -123 0 -32 -17 -107 -25 -107 -25 0 -32 15
-27 60 9 100 -61 138 -103 55 -11 -22 -20 -41 -20 -42 -1 -1 -11 0 -23 4 -26
6 -28 29 -8 78 30 72 100 105 155 75z m-300 -46 c29 -37 46 -101 30 -120 -16
-20 -29 -18 -29 5 0 29 -32 63 -53 56 -22 -9 -31 -45 -23 -94 4 -29 2 -40 -9
-45 -18 -7 -35 49 -35 120 0 93 71 139 119 78z m235 -215 c125 -58 141 -69
132 -95 -8 -24 -208 -144 -250 -151 -26 -4 -45 6 -119 58 -95 68 -116 101 -81
126 61 43 152 101 164 106 29 11 45 6 154 -44z m177 -273 c15 -46 69 -170 118
-274 50 -104 101 -223 114 -263 20 -60 25 -68 30 -48 11 39 7 148 -7 228 -11
61 -10 71 1 55 37 -50 73 -191 73 -286 0 -27 4 -48 8 -48 23 0 92 -75 108
-115 17 -46 11 -75 -10 -41 -43 72 -127 126 -197 126 -36 0 -69 -25 -82 -63
-4 -9 -18 -22 -31 -28 -40 -18 -54 -64 -65 -204 -6 -84 -17 -154 -32 -197 -21
-67 -22 -68 -76 -88 -80 -30 -137 -41 -218 -41 -105 -1 -185 26 -185 61 0 5
-16 29 -35 55 l-36 46 31 25 c24 21 30 34 30 65 0 53 -41 96 -190 203 -100 70
-119 88 -143 136 -26 51 -28 62 -24 145 3 69 10 106 32 158 15 37 30 69 34 72
4 2 1 -26 -7 -63 -16 -78 -11 -216 11 -277 l15 -40 6 50 c23 162 50 243 129
382 62 110 76 151 85 264 l7 78 68 -51 c58 -43 77 -52 121 -56 60 -5 85 5 201
77 44 27 81 48 83 46 2 -2 17 -42 33 -89z m169 -846 c0 -33 51 -80 93 -87 30
-4 51 1 103 27 86 42 105 35 129 -46 9 -31 32 -79 51 -107 54 -78 37 -116 -75
-171 -44 -21 -92 -57 -149 -113 -88 -87 -125 -106 -177 -91 -86 24 -102 96
-55 238 23 72 33 124 40 215 4 66 11 128 15 138 10 23 25 22 25 -3z m-928 -34
c19 -19 55 -75 81 -124 26 -49 70 -118 98 -153 89 -111 100 -166 46 -225 -48
-52 -89 -54 -202 -11 -96 38 -184 57 -251 56 -82 -2 -105 31 -79 112 13 39 16
68 10 123 -7 81 -4 86 73 125 24 12 68 47 98 77 30 30 63 54 74 54 10 0 34
-15 52 -34z"/>
<path d="M1246 1678 c-95 -48 -131 -48 -201 3 -35 25 -48 30 -57 21 -28 -28
86 -102 156 -102 51 0 206 77 206 102 0 26 -15 22 -104 -24z"/>
</g>
</svg>
