<?xml version="1.0" standalone="no"?>
<!DOCTYPE svg PUBLIC "-//W3C//DTD SVG 20010904//EN"
 "http://www.w3.org/TR/2001/REC-SVG-20010904/DTD/svg10.dtd">
<svg version="1.0" xmlns="http://www.w3.org/2000/svg"
 width="900.000000pt" height="900.000000pt" viewBox="0 0 900.000000 900.000000"
 preserveAspectRatio="xMidYMid meet">
<metadata>
Created by potrace 1.10, written by Peter Selinger 2001-2011
</metadata>
<g transform="translate(0.000000,900.000000) scale(0.100000,-0.100000)"
fill="#ffffff" stroke="none">
<path d="M6635 4894 c-203 -32 -273 -52 -423 -121 -42 -19 -154 -84 -162 -93
-3 -3 -32 -27 -65 -52 -85 -65 -208 -203 -239 -268 -11 -23 -31 -56 -42 -71
-6 -8 -14 -23 -17 -34 -3 -11 -15 -45 -27 -75 -12 -30 -26 -73 -30 -95 -4 -22
-13 -67 -20 -100 -15 -75 -9 -410 9 -480 42 -167 77 -257 133 -343 15 -24 28
-45 28 -48 0 -14 95 -126 152 -179 116 -109 301 -245 333 -245 8 0 17 -5 20
-10 5 -9 220 -116 310 -156 71 -31 124 -54 180 -79 33 -15 74 -33 90 -40 310
-138 411 -200 484 -298 154 -204 84 -470 -155 -586 -35 -17 -70 -31 -78 -31
-7 0 -31 -7 -52 -16 -56 -24 -372 -23 -426 0 -21 9 -47 16 -59 16 -41 0 -205
89 -288 155 -84 68 -140 132 -214 243 -45 68 -66 76 -108 44 -13 -10 -31 -22
-39 -26 -8 -4 -24 -12 -35 -19 -11 -7 -52 -30 -90 -52 -39 -22 -79 -45 -90
-52 -11 -7 -29 -17 -40 -23 -11 -6 -33 -19 -50 -30 -16 -11 -43 -26 -60 -34
-16 -8 -52 -29 -80 -45 -27 -16 -69 -40 -93 -53 -24 -12 -45 -25 -48 -29 -7
-12 17 -67 32 -73 8 -3 14 -10 14 -15 0 -16 94 -151 147 -211 57 -65 164 -171
201 -200 83 -63 124 -91 158 -110 22 -12 53 -30 69 -41 17 -10 37 -22 45 -25
8 -4 38 -17 66 -30 63 -29 132 -54 164 -61 14 -3 39 -11 57 -19 17 -8 40 -14
51 -14 12 0 33 -5 49 -11 15 -6 57 -15 93 -20 36 -5 90 -13 120 -18 77 -13
441 -13 520 0 36 6 88 14 115 18 66 10 142 30 183 47 18 8 40 14 48 14 18 0
61 18 149 61 34 16 64 29 67 29 22 0 215 145 273 205 48 49 118 133 125 149 3
6 16 29 30 51 14 22 33 58 44 80 10 22 21 47 25 55 17 35 50 162 65 245 18
103 21 310 5 400 -5 33 -14 83 -18 110 -10 55 -19 83 -65 195 -54 132 -109
215 -223 333 -60 62 -252 217 -269 217 -4 0 -15 6 -23 14 -40 34 -293 163
-536 271 -16 7 -60 27 -98 44 -37 17 -69 31 -72 31 -6 0 -193 87 -215 100 -8
5 -40 22 -70 37 -62 32 -187 151 -211 203 -35 73 -44 144 -29 233 20 124 85
211 200 269 64 32 67 32 207 32 84 0 151 -4 165 -11 13 -6 45 -22 73 -34 69
-32 149 -102 210 -184 16 -22 33 -42 36 -45 3 -3 12 -18 20 -35 20 -42 47 -42
101 0 26 19 50 35 53 35 4 0 24 14 45 30 21 17 41 30 44 30 3 0 35 20 72 45
36 25 68 45 71 45 3 0 22 12 42 28 42 31 70 49 91 59 8 3 31 19 51 35 20 15
40 28 44 28 4 0 23 9 41 21 l33 20 -22 34 c-78 119 -145 201 -252 309 -70 71
-146 131 -195 153 -8 4 -35 19 -60 33 -25 15 -54 29 -65 32 -11 4 -44 16 -74
27 -70 26 -201 58 -271 65 -30 3 -84 10 -120 16 -87 13 -225 11 -335 -6z m355
-124 c231 -20 437 -90 584 -199 82 -61 243 -235 251 -271 9 -41 -5 -56 -130
-138 -55 -36 -119 -78 -143 -94 -64 -42 -118 -68 -142 -68 -13 0 -51 29 -97
76 -149 148 -259 200 -443 211 -179 10 -296 -33 -415 -151 -112 -111 -151
-215 -143 -377 4 -78 9 -97 43 -164 45 -89 150 -203 240 -260 64 -41 243 -129
395 -195 219 -95 471 -218 580 -283 246 -147 398 -308 491 -517 121 -273 118
-635 -7 -908 -43 -93 -148 -240 -201 -282 -16 -12 -57 -44 -92 -71 -71 -56
-234 -138 -326 -164 -33 -10 -78 -23 -100 -31 -143 -49 -562 -65 -780 -30
-342 54 -632 193 -845 406 -102 102 -180 208 -180 246 0 29 35 54 247 174 207
118 204 118 306 6 110 -121 302 -266 351 -266 7 0 30 -9 51 -20 109 -56 345
-84 506 -61 247 36 427 161 516 359 20 45 27 78 30 157 5 93 3 105 -25 177
-17 43 -46 99 -65 125 -50 67 -143 154 -202 189 -27 16 -59 35 -70 42 -37 23
-247 122 -259 122 -7 0 -16 4 -21 9 -6 5 -89 44 -185 86 -475 210 -670 343
-819 560 -106 154 -155 306 -174 535 -2 25 0 104 4 175 15 235 93 416 253 583
225 235 594 348 1016 312z"/>
<path d="M4037 3335 c-2 -1380 -4 -1525 -19 -1572 -69 -219 -184 -302 -416
-303 -171 0 -262 37 -375 154 -51 54 -122 156 -151 218 -31 66 -37 66 -121 9
-42 -28 -78 -51 -80 -51 -2 0 -21 -12 -42 -26 -21 -14 -47 -30 -58 -35 -22
-11 -41 -22 -102 -62 -24 -15 -45 -27 -47 -27 -3 0 -24 -13 -48 -29 -24 -16
-61 -39 -83 -51 -71 -38 -133 -75 -140 -82 -17 -17 158 -277 248 -368 155
-159 376 -296 542 -336 11 -3 43 -11 70 -19 223 -62 597 -62 820 0 28 8 59 16
70 19 52 13 192 74 250 109 124 76 288 239 336 332 11 22 24 47 29 55 53 85
120 300 139 445 8 53 12 600 14 1609 l2 1528 -417 2 -418 1 -3 -1520z m655
1385 c21 -6 42 -20 48 -30 7 -14 10 -479 7 -1498 -3 -1447 -4 -1479 -24 -1562
-26 -110 -46 -166 -94 -266 -44 -93 -138 -225 -192 -269 -21 -16 -52 -42 -70
-57 -49 -40 -212 -121 -292 -145 -137 -43 -240 -56 -435 -57 -213 -1 -341 17
-485 66 -118 41 -245 105 -320 161 -78 59 -213 198 -259 266 -46 68 -47 102
-3 134 34 26 311 193 364 221 54 27 67 21 131 -56 130 -158 225 -231 351 -269
65 -19 89 -21 205 -17 171 7 238 32 337 125 84 79 123 139 156 240 l26 78 7
720 c4 396 8 1049 9 1451 1 683 2 732 19 746 9 9 24 18 32 21 28 10 444 7 482
-3z"/>
</g>
</svg>
