<?xml version="1.0" standalone="no"?>
<!DOCTYPE svg PUBLIC "-//W3C//DTD SVG 20010904//EN"
 "http://www.w3.org/TR/2001/REC-SVG-20010904/DTD/svg10.dtd">
<svg version="1.0" xmlns="http://www.w3.org/2000/svg"
 width="675.000000pt" height="675.000000pt" viewBox="0 0 675.000000 675.000000"
 preserveAspectRatio="xMidYMid meet">
<metadata>
Created by potrace 1.10, written by Peter Selinger 2001-2011
</metadata>
<g transform="translate(0.000000,675.000000) scale(0.100000,-0.100000)"
fill="#ffffff" stroke="none">
<path d="M3270 6395 c-7 -8 -25 -15 -41 -15 -16 0 -29 -4 -29 -9 0 -9 -29 -28
-77 -50 -13 -6 -23 -15 -23 -21 0 -5 -11 -10 -24 -10 -13 0 -26 -7 -30 -15 -3
-8 -13 -15 -22 -15 -9 0 -33 -13 -54 -30 -21 -16 -45 -30 -53 -30 -8 0 -17 -7
-21 -15 -3 -8 -17 -15 -31 -15 -14 0 -25 -5 -25 -10 0 -6 -10 -15 -22 -21 -34
-15 -68 -35 -81 -48 -6 -6 -19 -11 -28 -11 -9 0 -19 -7 -23 -15 -3 -8 -14 -15
-24 -15 -10 0 -23 -5 -29 -11 -12 -12 -46 -33 -80 -48 -11 -5 -24 -15 -28 -20
-3 -6 -14 -11 -25 -11 -10 0 -20 -7 -24 -15 -3 -8 -12 -15 -20 -15 -8 0 -32
-12 -53 -26 -21 -14 -48 -30 -60 -35 -13 -5 -23 -13 -23 -19 0 -5 -11 -10 -24
-10 -13 0 -26 -7 -30 -15 -3 -8 -14 -15 -25 -15 -11 0 -24 -6 -28 -13 -4 -7
-26 -21 -48 -32 -22 -11 -44 -26 -48 -32 -4 -7 -19 -13 -32 -13 -14 0 -25 -5
-25 -10 0 -6 -10 -15 -22 -21 -34 -15 -68 -35 -81 -48 -6 -6 -19 -11 -28 -11
-9 0 -19 -7 -23 -15 -3 -8 -14 -15 -24 -15 -10 0 -23 -5 -29 -11 -12 -12 -46
-33 -80 -48 -11 -5 -24 -15 -28 -20 -3 -6 -14 -11 -25 -11 -10 0 -20 -7 -24
-15 -3 -8 -14 -15 -25 -15 -11 0 -23 -5 -26 -11 -4 -5 -17 -14 -28 -20 -33
-14 -61 -33 -70 -46 -4 -7 -19 -13 -32 -13 -14 0 -25 -5 -25 -11 0 -5 -13 -15
-30 -20 -16 -6 -30 -15 -30 -20 0 -5 -6 -9 -14 -9 -7 0 -19 -7 -26 -15 -7 -8
-20 -15 -30 -15 -10 0 -20 -7 -24 -15 -3 -8 -14 -15 -24 -15 -10 0 -23 -5 -29
-11 -12 -12 -46 -33 -80 -48 -11 -5 -24 -15 -28 -20 -3 -6 -14 -11 -25 -11
-10 0 -20 -7 -24 -15 -3 -8 -14 -15 -25 -15 -11 0 -23 -5 -26 -11 -4 -5 -17
-14 -28 -20 -33 -14 -61 -33 -70 -46 -4 -7 -19 -13 -31 -13 -13 0 -26 -7 -30
-15 -3 -8 -13 -15 -22 -15 -32 0 -153 -108 -154 -137 0 -7 -7 -16 -15 -21 -14
-7 -15 -176 -15 -1497 0 -1314 2 -1490 15 -1498 8 -4 15 -13 15 -19 0 -21 71
-98 91 -98 11 0 22 -7 25 -15 4 -8 14 -15 24 -15 10 0 23 -7 30 -15 7 -8 19
-15 27 -15 7 0 16 -7 19 -15 4 -8 15 -15 25 -15 11 0 22 -7 25 -15 4 -8 17
-15 30 -15 14 0 27 -7 30 -15 4 -8 12 -15 19 -15 7 0 18 -7 25 -15 7 -8 20
-15 30 -15 10 0 20 -7 24 -15 3 -8 15 -15 26 -15 11 0 23 -7 26 -15 4 -8 14
-15 23 -15 9 0 22 -5 28 -11 12 -12 46 -33 80 -48 11 -5 24 -15 28 -20 3 -6
15 -11 26 -11 11 0 22 -7 25 -15 4 -8 14 -15 23 -15 9 0 22 -5 28 -11 13 -13
47 -33 81 -48 12 -6 22 -15 22 -21 0 -5 11 -10 25 -10 14 0 28 -7 31 -15 4 -8
13 -15 21 -15 8 0 32 -13 53 -30 21 -16 45 -30 54 -30 9 0 19 -7 22 -15 4 -8
17 -15 30 -15 13 0 24 -5 24 -10 0 -6 10 -14 23 -19 12 -5 39 -21 60 -35 21
-14 45 -26 53 -26 8 0 17 -7 20 -15 4 -8 14 -15 23 -15 9 0 22 -5 28 -11 13
-13 47 -33 81 -48 12 -6 22 -15 22 -21 0 -5 11 -10 25 -10 14 0 28 -7 31 -15
4 -8 14 -15 24 -15 10 0 23 -7 30 -15 7 -8 19 -15 27 -15 7 0 16 -7 19 -15 4
-8 15 -15 25 -15 11 0 22 -7 25 -15 4 -8 17 -15 30 -15 12 0 27 -6 31 -12 4
-7 26 -22 48 -33 22 -11 44 -25 48 -32 4 -7 17 -13 28 -13 11 0 22 -7 25 -15
4 -8 17 -15 30 -15 13 0 24 -5 24 -10 0 -6 10 -14 23 -19 12 -5 39 -21 60 -35
21 -14 45 -26 53 -26 8 0 17 -7 20 -15 4 -8 14 -15 23 -15 9 0 22 -5 28 -11
12 -12 46 -33 80 -48 11 -5 24 -15 28 -20 3 -6 15 -11 26 -11 11 0 22 -7 25
-15 4 -8 14 -15 24 -15 10 0 23 -7 30 -15 7 -8 19 -15 26 -15 8 0 14 -4 14 -9
0 -5 14 -14 30 -20 17 -5 30 -15 30 -20 0 -6 11 -11 25 -11 14 0 28 -7 31 -15
4 -8 14 -15 24 -15 10 0 23 -7 30 -15 18 -22 212 -22 230 0 7 8 21 15 32 15
10 0 21 7 24 15 4 8 17 15 30 15 13 0 24 5 24 11 0 5 14 15 30 20 17 6 30 15
30 20 0 5 6 9 14 9 7 0 19 7 26 15 7 8 20 15 30 15 10 0 20 7 24 15 3 8 14 15
24 15 10 0 23 5 29 11 12 12 46 33 80 48 11 5 24 15 28 20 3 6 14 11 25 11 10
0 20 7 24 15 3 8 14 15 25 15 11 0 23 5 26 11 4 5 17 14 28 20 33 14 61 33 70
47 4 6 19 12 31 12 13 0 26 7 30 15 3 8 14 15 25 15 11 0 24 6 28 13 4 7 26
21 48 32 22 11 44 26 48 32 4 7 19 13 32 13 14 0 25 5 25 10 0 6 10 15 23 21
33 15 67 35 80 48 6 6 19 11 28 11 9 0 19 7 23 15 3 8 17 15 31 15 14 0 25 5
25 10 0 6 10 15 23 21 33 15 67 35 80 48 6 6 19 11 28 11 9 0 19 7 23 15 3 8
14 15 25 15 11 0 23 5 26 11 4 5 17 14 28 20 33 14 61 33 70 47 4 6 19 12 31
12 13 0 26 7 30 15 3 8 13 15 22 15 9 0 33 14 54 30 21 17 45 30 53 30 8 0 17
7 21 15 3 8 14 15 24 15 11 0 25 7 32 15 7 8 21 15 32 15 10 0 21 7 24 15 4 8
12 15 19 15 7 0 18 7 25 15 7 8 20 15 30 15 10 0 20 7 24 15 3 8 14 15 24 15
10 0 23 5 29 11 12 12 46 33 80 48 11 5 24 15 28 20 3 6 14 11 25 11 10 0 20
7 24 15 3 8 15 15 26 15 11 0 23 7 26 15 4 8 14 15 24 15 10 0 23 7 30 15 7 8
18 15 25 15 7 0 15 7 19 15 3 8 16 15 30 15 13 0 26 7 30 15 3 8 14 15 25 15
11 0 24 6 28 13 4 7 26 21 48 32 22 11 44 26 48 33 4 6 16 12 27 12 19 0 90
77 90 98 0 6 7 15 15 19 14 8 15 179 15 1498 0 1319 -1 1490 -15 1498 -8 4
-15 13 -15 20 -1 29 -122 137 -154 137 -9 0 -19 7 -22 15 -4 8 -17 15 -30 15
-12 0 -27 6 -31 13 -9 13 -37 32 -70 46 -11 6 -24 15 -28 20 -3 6 -15 11 -26
11 -11 0 -22 7 -25 15 -4 8 -14 15 -23 15 -9 0 -22 5 -28 11 -12 12 -46 33
-80 48 -11 5 -24 15 -28 20 -3 6 -15 11 -26 11 -11 0 -22 7 -25 15 -4 8 -14
15 -24 15 -10 0 -23 7 -30 15 -7 8 -19 15 -26 15 -8 0 -14 4 -14 9 0 5 -13 14
-30 20 -16 5 -30 15 -30 20 0 6 -11 11 -25 11 -13 0 -28 6 -32 13 -9 13 -37
32 -70 46 -11 6 -24 15 -28 20 -3 6 -15 11 -26 11 -11 0 -22 7 -25 15 -4 8
-14 15 -23 15 -9 0 -22 5 -28 11 -12 12 -46 33 -80 48 -11 5 -24 15 -28 20 -3
6 -15 11 -26 11 -11 0 -22 7 -25 15 -4 8 -14 15 -23 15 -9 0 -22 5 -28 11 -13
13 -47 33 -80 48 -13 6 -23 15 -23 21 0 5 -11 10 -25 10 -13 0 -28 6 -32 13
-4 6 -26 21 -48 32 -22 11 -44 25 -48 32 -4 7 -16 13 -26 13 -10 0 -24 7 -31
15 -7 8 -21 15 -31 15 -11 0 -19 5 -19 10 0 6 -10 14 -22 19 -13 5 -40 21 -61
35 -21 14 -45 26 -53 26 -8 0 -17 7 -20 15 -4 8 -14 15 -23 15 -9 0 -22 5 -28
11 -12 12 -46 33 -80 48 -11 5 -24 15 -28 20 -3 6 -15 11 -26 11 -11 0 -22 7
-25 15 -4 8 -14 15 -24 15 -10 0 -23 7 -30 15 -7 8 -19 15 -27 15 -7 0 -16 7
-19 15 -4 8 -14 15 -24 15 -10 0 -23 7 -30 15 -7 8 -21 15 -32 15 -10 0 -21 7
-24 15 -4 8 -13 15 -21 15 -8 0 -32 14 -53 30 -21 17 -45 30 -54 30 -9 0 -19
7 -22 15 -4 8 -17 15 -30 15 -13 0 -24 4 -24 9 0 9 -29 28 -77 50 -13 6 -23
15 -23 21 0 5 -13 10 -29 10 -16 0 -34 7 -41 15 -9 11 -34 15 -95 15 -61 0
-86 -4 -95 -15z m197 -111 c27 -9 57 -24 68 -34 18 -16 97 -63 220 -130 28
-16 77 -44 110 -64 33 -20 78 -45 100 -56 22 -11 69 -38 105 -60 36 -21 90
-53 120 -70 30 -17 80 -46 110 -65 30 -18 114 -66 185 -106 72 -39 146 -82
166 -95 19 -13 40 -24 46 -24 6 0 24 -11 40 -24 15 -13 48 -33 73 -45 25 -12
77 -40 116 -64 59 -35 321 -187 514 -300 25 -14 68 -37 95 -51 28 -14 79 -44
115 -67 36 -22 83 -50 104 -61 21 -11 48 -28 59 -39 11 -10 29 -21 39 -25 10
-3 29 -29 43 -58 l25 -53 0 -1410 c0 -1220 -2 -1416 -15 -1460 -13 -45 -21
-54 -82 -92 -155 -98 -178 -111 -189 -111 -6 0 -18 -7 -25 -17 -8 -9 -37 -27
-66 -39 -28 -13 -54 -28 -58 -34 -4 -6 -19 -16 -33 -21 -42 -16 -240 -130
-253 -145 -6 -8 -16 -14 -22 -14 -11 0 -111 -57 -202 -115 -27 -18 -76 -46
-107 -63 -32 -16 -70 -39 -85 -50 -15 -10 -75 -44 -133 -75 -58 -30 -132 -71
-165 -91 -33 -19 -71 -41 -85 -48 -14 -7 -28 -17 -32 -22 -3 -5 -29 -21 -56
-35 -107 -56 -151 -81 -157 -91 -3 -5 -27 -19 -52 -30 -26 -11 -61 -32 -79
-45 -18 -14 -38 -25 -45 -25 -7 0 -27 -11 -45 -25 -18 -14 -37 -25 -41 -25 -5
0 -31 -14 -59 -32 -27 -17 -74 -45 -104 -60 -77 -40 -185 -101 -201 -114 -31
-24 -120 -54 -161 -54 -46 0 -135 30 -177 59 -22 15 -146 87 -243 141 -15 8
-63 35 -105 59 -43 25 -91 52 -108 62 -16 9 -61 34 -100 57 -38 22 -112 64
-162 92 -51 28 -95 55 -98 60 -3 5 -58 38 -123 74 -121 67 -198 110 -290 161
-30 17 -115 67 -190 113 -76 45 -159 94 -187 107 -27 14 -68 38 -90 54 -22 16
-85 53 -141 82 -55 30 -125 68 -155 85 -30 17 -81 46 -114 64 -33 18 -67 39
-76 46 -8 8 -20 14 -26 14 -5 0 -18 9 -28 20 -10 11 -24 20 -31 20 -21 0 -74
51 -97 94 l-22 41 -2 1375 c-1 756 1 1404 4 1439 9 97 30 117 279 263 62 36
122 69 135 73 13 4 33 15 44 25 11 10 40 28 65 40 42 21 169 95 250 145 50 31
132 80 150 89 8 4 44 24 80 46 36 21 108 62 160 91 52 28 104 60 115 69 11 10
31 21 45 25 22 7 74 36 231 130 18 11 51 30 73 43 22 12 47 29 56 37 9 8 20
15 24 15 4 0 55 29 114 63 59 35 150 87 202 116 52 29 120 68 150 86 30 19 74
43 97 54 23 11 63 34 88 51 113 78 190 92 302 54z"/>
<path d="M2265 4810 c-16 -5 -48 -13 -71 -19 -52 -13 -155 -82 -194 -129 -17
-20 -45 -66 -63 -102 l-32 -65 -3 -1104 -2 -1104 29 -73 c53 -130 138 -215
258 -257 61 -21 194 -27 216 -9 7 5 23 13 37 17 42 12 126 72 167 119 21 24
52 70 68 102 l30 59 6 615 c3 338 9 623 13 633 13 27 31 20 55 -23 12 -22 32
-42 44 -45 12 -3 32 -20 44 -38 12 -18 47 -59 78 -92 31 -33 66 -74 78 -92 47
-67 345 -425 375 -448 7 -5 20 -22 30 -36 9 -15 60 -78 113 -140 52 -63 112
-136 133 -164 63 -84 278 -318 323 -352 97 -74 223 -119 358 -130 60 -5 83 -1
155 23 47 15 104 40 128 55 87 55 165 170 181 265 14 89 14 2137 0 2205 -24
113 -89 202 -200 277 -45 30 -144 62 -190 62 -57 0 -180 -39 -216 -68 -53 -43
-116 -111 -141 -152 -48 -82 -50 -116 -54 -745 -3 -324 -8 -598 -12 -608 -7
-15 -16 -9 -65 41 -112 116 -296 333 -493 582 -28 36 -78 92 -111 125 -32 33
-65 72 -73 87 -8 15 -20 31 -27 35 -8 4 -44 46 -80 93 -36 47 -78 99 -94 116
-16 17 -49 57 -74 90 -124 163 -247 278 -359 335 -108 55 -279 82 -365 59z
m175 -95 c23 -8 53 -15 65 -15 21 0 58 -15 105 -42 8 -5 23 -11 33 -14 9 -4
17 -10 17 -15 0 -5 11 -14 24 -19 13 -4 41 -30 62 -57 21 -26 45 -55 54 -64
22 -23 58 -65 118 -139 75 -91 183 -221 225 -270 12 -14 57 -68 101 -120 43
-52 85 -102 92 -110 12 -13 133 -158 239 -285 22 -27 56 -67 75 -90 19 -23 53
-64 75 -90 22 -27 47 -55 56 -64 8 -9 30 -36 49 -61 19 -25 41 -52 49 -61 43
-46 73 -81 131 -159 113 -150 127 -158 119 -73 -2 27 -4 389 -4 806 0 540 3
760 11 765 6 4 17 18 23 30 19 35 82 102 96 102 7 0 18 7 25 15 7 8 22 15 34
15 11 0 30 7 40 15 25 19 113 19 146 0 14 -8 35 -14 46 -15 12 0 24 -7 28 -15
3 -8 11 -15 18 -15 18 0 108 -100 108 -120 0 -10 7 -23 15 -30 13 -11 15 -150
15 -1145 0 -995 -2 -1134 -15 -1145 -8 -7 -15 -19 -15 -27 0 -15 -86 -106
-110 -116 -8 -4 -22 -11 -30 -16 -8 -5 -32 -16 -53 -25 -50 -21 -203 -22 -254
-1 -19 8 -46 15 -58 15 -12 0 -28 7 -35 15 -7 8 -20 15 -30 15 -10 0 -23 7
-30 15 -7 8 -18 15 -24 15 -18 0 -88 69 -157 155 -35 44 -69 85 -75 90 -11 10
-338 401 -384 459 -13 17 -51 63 -85 102 -33 39 -78 93 -100 119 -22 27 -47
55 -56 64 -8 9 -30 36 -49 61 -19 25 -41 52 -49 61 -35 37 -68 76 -101 119
-33 43 -66 82 -101 119 -8 9 -30 36 -49 61 -32 42 -46 58 -102 120 -13 14 -50
63 -83 108 -69 94 -93 103 -85 32 3 -25 5 -385 5 -801 0 -707 -1 -758 -17
-776 -10 -11 -18 -24 -18 -29 0 -20 -79 -94 -132 -123 -50 -27 -66 -31 -135
-31 -53 1 -84 5 -97 15 -11 8 -28 15 -38 15 -10 0 -18 4 -18 8 0 5 -20 22 -45
40 -25 17 -45 38 -45 46 0 8 -6 19 -12 23 -7 4 -21 25 -30 46 -17 35 -18 112
-18 1161 0 987 2 1125 15 1136 8 7 15 20 15 29 0 19 97 121 115 121 7 0 18 7
25 15 7 8 24 15 39 15 14 1 37 7 51 15 33 19 127 19 180 0z"/>
</g>
</svg>
