<?xml version="1.0" standalone="no"?>
<!DOCTYPE svg PUBLIC "-//W3C//DTD SVG 20010904//EN"
 "http://www.w3.org/TR/2001/REC-SVG-20010904/DTD/svg10.dtd">
<svg version="1.0" xmlns="http://www.w3.org/2000/svg"
 width="900.000000pt" height="900.000000pt" viewBox="0 0 900.000000 900.000000"
 preserveAspectRatio="xMidYMid meet">
<metadata>
Created by potrace 1.10, written by Peter Selinger 2001-2011
</metadata>
<g transform="translate(0.000000,900.000000) scale(0.100000,-0.100000)"
fill="#ffffff" stroke="none">
<path d="M4275 7109 c-356 -29 -452 -40 -482 -57 -12 -7 -32 -12 -45 -12 -13
0 -54 -12 -93 -26 -38 -14 -79 -28 -90 -31 -11 -3 -25 -10 -31 -14 -6 -5 -34
-21 -64 -37 -97 -52 -170 -125 -224 -222 -18 -32 -20 -64 -27 -340 -6 -275 -5
-308 10 -335 10 -16 27 -35 39 -41 15 -7 208 -13 591 -16 449 -5 575 -9 597
-19 40 -20 60 -86 44 -145 -7 -24 -19 -49 -27 -56 -12 -9 -132 -12 -512 -13
-731 0 -1408 -11 -1471 -22 -105 -20 -215 -68 -260 -113 -10 -10 -31 -26 -45
-36 -34 -22 -165 -192 -181 -234 -9 -24 -35 -83 -50 -113 -8 -16 -14 -35 -14
-42 0 -7 -6 -26 -14 -42 -8 -15 -21 -55 -29 -88 -8 -33 -20 -80 -27 -105 -30
-115 -49 -386 -38 -540 17 -226 24 -294 36 -340 6 -25 15 -72 21 -105 12 -81
30 -148 42 -160 5 -5 9 -18 9 -28 0 -10 6 -31 13 -45 8 -15 22 -45 32 -67 88
-198 161 -298 270 -368 109 -71 190 -86 466 -88 217 -1 221 -1 245 22 l24 22
0 327 c0 261 3 337 15 376 8 27 15 59 15 72 0 30 35 134 66 195 47 95 160 220
217 240 9 4 17 11 17 17 0 5 5 10 12 10 6 0 40 14 75 30 34 17 72 30 84 30 12
0 35 6 52 14 18 8 57 18 87 21 30 4 404 10 830 14 714 6 779 8 830 25 80 27
166 72 230 121 53 41 140 151 140 178 0 7 5 18 12 25 14 14 36 86 48 162 5 30
14 75 19 100 6 27 10 297 11 661 0 523 -2 623 -15 659 -8 23 -15 50 -15 60 0
17 -28 81 -53 125 -56 94 -168 182 -322 250 -22 10 -52 24 -67 32 -14 7 -34
13 -43 13 -9 0 -31 6 -48 14 -18 8 -45 17 -62 19 -16 3 -48 10 -70 16 -100 25
-154 34 -268 42 -201 15 -395 18 -512 8z m491 -98 c55 -6 121 -15 145 -20 24
-5 85 -19 134 -30 164 -36 313 -97 396 -162 20 -16 42 -29 48 -29 6 0 23 -18
37 -40 15 -22 30 -40 35 -40 4 0 15 -17 24 -37 9 -21 26 -58 38 -83 21 -42 22
-57 23 -360 4 -806 2 -1027 -11 -1071 -39 -135 -98 -244 -168 -307 -72 -67
-131 -94 -262 -121 -96 -19 -133 -20 -785 -21 -456 0 -705 -3 -745 -11 -33 -6
-71 -10 -85 -10 -31 1 -122 -24 -177 -50 -24 -10 -54 -19 -68 -19 -14 0 -25
-5 -25 -10 0 -6 -8 -13 -17 -17 -69 -25 -303 -263 -303 -308 0 -10 -12 -43
-26 -74 -24 -51 -75 -248 -76 -296 -1 -11 0 -94 1 -185 2 -91 1 -169 0 -175
-1 -5 -3 -30 -4 -55 -2 -60 -20 -139 -34 -153 -8 -8 -75 -13 -201 -15 -158 -3
-194 -1 -221 12 -18 9 -41 16 -51 16 -31 0 -91 43 -156 110 -73 76 -179 274
-217 405 -9 33 -21 65 -27 72 -5 6 -8 24 -7 40 2 15 -4 53 -13 83 -46 154 -52
722 -8 865 5 17 13 50 18 75 8 39 24 89 52 165 22 58 96 204 117 230 48 60
139 147 180 171 50 30 133 63 188 74 22 5 453 11 958 15 881 6 920 7 968 25
58 23 109 59 109 76 0 6 7 17 15 24 8 6 13 24 13 38 -1 15 0 32 1 37 2 6 3 28
2 49 -1 34 -8 47 -54 90 -82 79 -107 84 -402 86 -137 1 -364 3 -504 4 l-253 1
-30 35 -29 35 6 150 c3 83 8 193 10 246 3 106 27 170 82 220 46 42 153 109
175 109 11 0 37 13 58 30 20 16 40 27 44 23 3 -3 15 2 26 12 10 9 26 15 33 12
8 -3 19 -1 24 4 6 6 34 12 64 13 30 2 67 9 82 15 16 6 32 9 35 7 8 -5 253 21
259 27 8 9 463 7 559 -2z"/>
<path d="M3679 6839 c-54 -8 -79 -20 -113 -54 -14 -14 -30 -25 -36 -25 -26 0
-80 -82 -107 -160 -20 -59 -10 -188 20 -248 25 -52 108 -129 170 -159 64 -31
185 -33 247 -4 25 11 50 21 55 21 17 0 103 88 122 123 40 75 50 119 43 198 -6
69 -11 83 -54 148 -36 55 -62 82 -109 112 -36 22 -75 39 -92 39 -16 0 -46 4
-65 8 -19 5 -56 5 -81 1z m148 -96 c47 -12 114 -73 143 -129 50 -98 27 -226
-52 -292 -65 -55 -84 -62 -172 -62 -93 0 -131 14 -179 65 -51 53 -67 97 -67
179 0 88 14 120 81 186 65 64 143 81 246 53z"/>
<path d="M6012 5743 c-24 -24 -24 -25 -19 -186 6 -203 -7 -527 -23 -587 -49
-181 -68 -225 -135 -315 -77 -101 -224 -199 -355 -234 -160 -43 -174 -44 -950
-46 -410 -1 -761 -5 -780 -9 -134 -29 -241 -85 -326 -170 -68 -69 -134 -177
-134 -220 0 -9 -5 -27 -12 -39 -7 -12 -16 -51 -22 -87 -14 -94 -14 -1382 0
-1440 22 -91 66 -162 146 -242 43 -43 83 -78 88 -78 6 0 27 -11 48 -24 21 -13
63 -34 92 -46 30 -12 69 -29 87 -36 17 -8 37 -14 44 -14 7 0 31 -6 54 -14 22
-7 56 -18 75 -25 19 -6 98 -21 175 -33 262 -39 891 -26 1090 24 22 5 56 13 75
18 141 35 325 126 406 202 23 22 58 65 77 96 l35 57 3 327 c4 317 3 328 -16
347 -19 20 -37 21 -585 25 -511 5 -615 10 -648 30 -6 3 -18 31 -28 61 -13 42
-14 59 -6 67 7 7 12 20 12 30 0 10 9 27 21 39 20 20 28 20 497 19 1078 -3
1401 0 1449 11 196 44 264 79 378 194 50 49 100 110 113 135 12 25 26 52 31
60 4 8 16 33 25 55 10 22 24 53 32 68 8 16 14 37 14 47 0 10 4 21 9 24 4 3 18
49 31 103 12 54 27 109 33 123 10 25 22 127 33 300 8 104 -10 422 -27 485 -6
22 -14 69 -19 105 -9 67 -35 180 -49 215 -5 11 -16 40 -26 65 -30 80 -67 158
-133 286 -27 51 -147 158 -216 192 -87 43 -145 51 -417 56 l-223 3 -24 -24z
m568 -79 c38 -9 75 -23 81 -30 6 -8 16 -14 21 -14 16 0 79 -59 116 -106 77
-102 182 -348 212 -499 6 -33 15 -76 20 -95 28 -118 35 -199 34 -445 0 -285
-4 -342 -27 -396 -8 -20 -20 -69 -28 -110 -11 -68 -36 -136 -107 -294 -27 -61
-96 -157 -149 -207 -26 -25 -77 -56 -165 -100 -20 -10 -55 -18 -76 -18 -22 0
-58 -7 -81 -15 -23 -8 -59 -15 -79 -15 -20 0 -57 -1 -82 -2 -25 -1 -175 -1
-335 0 -159 0 -533 -2 -830 -7 -490 -7 -544 -9 -582 -26 -24 -10 -43 -22 -43
-26 0 -5 -13 -15 -29 -23 -41 -21 -56 -84 -37 -156 8 -29 21 -57 31 -62 9 -6
29 -23 43 -40 15 -17 38 -35 52 -40 22 -8 289 -14 921 -21 171 -2 189 -4 209
-22 17 -16 21 -27 16 -54 -3 -19 -1 -43 5 -53 6 -11 8 -26 5 -35 -8 -20 -17
-213 -16 -325 1 -90 -12 -128 -73 -210 -23 -31 -139 -111 -177 -123 -14 -4
-29 -11 -35 -15 -5 -5 -39 -16 -75 -25 -36 -9 -85 -27 -110 -40 -49 -26 -153
-40 -360 -50 -63 -3 -148 -11 -188 -17 -140 -21 -660 20 -752 59 -19 8 -63 21
-96 28 -34 8 -96 30 -138 49 -42 20 -81 36 -87 36 -25 0 -166 120 -189 160
-14 25 -32 62 -66 135 -12 25 -14 152 -14 725 l-1 695 26 64 c14 36 25 74 25
85 0 22 37 81 86 137 17 20 33 40 35 45 7 16 66 53 95 60 16 4 51 18 78 31 80
40 186 46 896 45 636 -1 771 3 855 28 22 6 58 15 80 20 69 15 189 76 251 127
32 27 72 58 87 68 16 10 36 34 47 54 10 20 27 45 39 55 12 11 21 25 21 31 0 7
10 27 23 46 29 43 74 178 88 266 6 37 13 201 16 363 3 192 9 300 16 309 7 8
24 11 47 8 19 -2 44 -1 55 3 37 14 320 2 395 -16z"/>
<path d="M5176 2778 c-9 -10 -28 -18 -44 -18 -61 0 -138 -63 -194 -159 -23
-39 -27 -58 -28 -121 0 -48 5 -83 14 -95 7 -11 17 -31 21 -45 10 -32 93 -122
122 -133 13 -5 23 -13 23 -18 0 -23 77 -42 166 -41 l91 0 83 83 c99 99 130
159 130 250 0 40 -7 73 -20 99 -11 22 -20 46 -20 53 0 16 -73 87 -111 108 -33
19 -105 39 -166 48 -43 6 -55 4 -67 -11z m184 -78 c76 -39 122 -113 128 -206
4 -61 1 -79 -19 -119 -56 -111 -211 -196 -287 -156 -9 6 -38 20 -63 32 -74 34
-149 148 -149 223 0 80 63 185 133 222 71 37 188 39 257 4z"/>
</g>
</svg>
