<?xml version="1.0" standalone="no"?>
<!DOCTYPE svg PUBLIC "-//W3C//DTD SVG 20010904//EN"
 "http://www.w3.org/TR/2001/REC-SVG-20010904/DTD/svg10.dtd">
<svg version="1.0" xmlns="http://www.w3.org/2000/svg"
 width="900.000000pt" height="900.000000pt" viewBox="0 0 900.000000 900.000000"
 preserveAspectRatio="xMidYMid meet">
<metadata>
Created by potrace 1.10, written by Peter Selinger 2001-2011
</metadata>
<g transform="translate(0.000000,900.000000) scale(0.100000,-0.100000)"
fill="#ffffff" stroke="none">
<path d="M4090 7498 c-231 -7 -250 -9 -470 -32 -231 -24 -309 -34 -405 -51
-148 -26 -186 -33 -282 -55 -50 -11 -99 -20 -108 -20 -10 0 -38 -7 -64 -15
-25 -8 -73 -22 -106 -31 -97 -27 -329 -106 -339 -115 -6 -5 -16 -9 -24 -9 -23
0 -258 -112 -353 -168 -111 -65 -251 -201 -287 -278 -13 -27 -27 -57 -33 -66
-16 -31 -21 -150 -9 -243 6 -49 17 -139 25 -200 7 -60 18 -155 25 -210 6 -55
15 -113 20 -130 4 -16 11 -66 14 -110 4 -44 11 -100 16 -125 6 -25 14 -83 20
-130 14 -121 37 -297 55 -420 8 -58 20 -148 26 -200 6 -52 15 -111 20 -130 5
-19 14 -78 19 -130 9 -101 24 -210 40 -300 5 -30 12 -86 15 -125 3 -38 10 -86
16 -105 5 -19 14 -73 19 -120 21 -188 38 -316 44 -340 4 -14 11 -63 16 -110 5
-47 17 -134 25 -195 20 -144 40 -296 55 -420 6 -55 16 -116 21 -135 5 -19 14
-75 20 -125 33 -289 64 -514 74 -540 41 -102 47 -112 115 -184 65 -68 112
-101 225 -155 135 -65 156 -74 185 -81 14 -3 34 -10 45 -15 47 -19 113 -39
150 -46 22 -4 45 -9 50 -13 6 -3 39 -12 75 -18 36 -7 101 -20 145 -28 44 -9
118 -21 165 -26 47 -5 105 -13 130 -19 25 -5 92 -12 150 -16 58 -4 116 -9 130
-11 149 -21 732 -29 980 -13 276 18 526 52 840 114 68 14 102 22 240 56 25 6
52 15 60 19 9 5 31 12 50 16 19 4 41 11 50 16 8 5 38 18 65 29 234 97 377 251
405 435 10 66 27 195 49 385 6 47 15 110 20 140 13 71 41 276 71 525 5 44 12
94 15 110 7 34 28 183 50 355 23 181 31 229 36 234 3 3 43 -2 89 -10 120 -22
342 -29 394 -13 106 33 144 57 182 114 25 40 26 184 1 230 -9 17 -17 35 -17
42 0 18 -162 185 -212 219 -24 16 -45 31 -48 34 -3 4 -23 17 -45 30 -22 13
-42 26 -45 29 -3 4 -27 17 -53 31 -146 75 -141 69 -133 170 4 47 11 99 16 115
8 28 19 109 40 320 6 50 14 106 19 125 5 19 15 80 21 135 7 55 18 150 26 210
8 61 19 146 24 190 5 44 14 107 20 140 43 255 63 511 45 590 -15 68 -71 160
-140 230 -38 39 -81 77 -94 85 -13 8 -29 20 -35 25 -34 32 -224 135 -341 185
-11 5 -41 18 -67 29 -26 12 -53 21 -60 21 -8 0 -18 4 -24 8 -5 5 -43 18 -84
31 -41 13 -84 26 -95 31 -25 9 -92 27 -172 46 -35 8 -93 21 -130 29 -38 9
-104 23 -148 31 -75 14 -131 23 -360 60 -49 8 -157 21 -240 29 -82 9 -170 18
-195 21 -103 11 -540 19 -740 12z m765 -276 c105 -6 201 -14 215 -17 14 -4 77
-13 140 -20 63 -8 153 -20 200 -29 47 -8 114 -20 150 -26 35 -6 78 -14 95 -20
16 -5 50 -13 75 -19 77 -17 134 -32 150 -40 9 -5 35 -12 58 -16 23 -4 44 -11
48 -16 3 -5 15 -9 27 -9 12 0 34 -6 49 -14 15 -8 40 -17 57 -21 17 -4 33 -11
36 -16 4 -5 13 -9 22 -9 19 0 54 -16 221 -99 164 -81 186 -92 192 -101 3 -3
22 -16 42 -29 55 -33 126 -117 134 -157 8 -45 -23 -105 -84 -161 -45 -41 -232
-143 -263 -143 -8 0 -19 -4 -25 -8 -5 -5 -38 -19 -74 -31 -36 -13 -72 -26 -81
-31 -9 -5 -34 -12 -55 -16 -22 -3 -43 -10 -49 -14 -5 -4 -32 -13 -60 -20 -27
-6 -77 -18 -110 -27 -156 -39 -298 -68 -425 -87 -47 -7 -92 -16 -100 -20 -17
-7 -152 -22 -320 -37 -63 -5 -135 -14 -160 -20 -65 -16 -887 -23 -1080 -10
-280 20 -394 30 -450 40 -30 6 -86 13 -125 16 -38 3 -95 10 -125 15 -30 5
-100 17 -155 25 -55 9 -120 20 -145 26 -25 6 -68 14 -96 19 -27 6 -86 19 -130
31 -43 11 -99 25 -124 31 -25 6 -49 14 -55 18 -5 5 -27 11 -48 15 -20 4 -40
11 -43 16 -3 5 -12 9 -21 9 -8 0 -31 7 -51 16 -21 8 -50 21 -67 28 -222 95
-360 197 -382 284 -10 42 35 111 117 178 28 22 229 143 270 161 57 27 118 51
165 68 28 9 58 21 67 26 10 5 34 13 55 18 21 6 63 18 93 27 111 33 255 69 350
89 36 7 81 18 100 24 19 6 50 11 68 11 18 0 42 5 52 10 11 6 55 15 97 20 43 5
116 14 163 20 47 6 111 15 143 21 32 5 129 13 215 16 86 3 166 10 177 14 27
11 625 4 860 -9z m-2877 -1144 c20 -13 55 -31 77 -41 22 -10 53 -25 68 -33 16
-8 33 -14 39 -14 5 0 24 -6 41 -14 218 -97 747 -212 1212 -262 77 -8 158 -17
180 -20 270 -33 1220 -33 1470 0 22 3 96 12 165 21 231 27 487 66 520 79 8 3
42 10 75 15 58 10 128 25 250 55 143 36 204 53 260 75 11 5 47 18 80 31 103
38 207 86 265 122 10 7 22 9 25 6 4 -3 1 -39 -5 -79 -12 -76 -33 -244 -50
-384 -5 -44 -12 -91 -15 -105 -3 -14 -12 -77 -21 -140 -38 -283 -45 -340 -54
-415 -5 -44 -12 -93 -16 -110 -6 -30 -26 -182 -44 -345 -6 -47 -14 -104 -20
-127 -5 -23 -10 -56 -10 -73 0 -17 -6 -33 -14 -36 -13 -5 -301 85 -336 105 -9
5 -30 12 -48 15 -17 4 -34 12 -37 17 -4 5 -14 9 -23 9 -9 0 -29 6 -44 14 -15
8 -40 17 -57 21 -17 4 -33 11 -36 16 -4 5 -13 9 -21 9 -8 0 -36 9 -62 21 -26
11 -58 25 -72 30 -14 6 -38 17 -53 25 -16 8 -33 14 -38 14 -9 0 -41 13 -124
50 -11 5 -42 18 -70 30 -75 32 -84 36 -160 70 -38 17 -83 37 -100 45 -16 7
-61 27 -100 45 -38 17 -83 37 -100 45 -331 148 -379 176 -390 225 -15 68 -60
134 -120 174 -56 38 -62 40 -139 40 -96 1 -139 -16 -204 -78 -64 -60 -83 -106
-84 -196 0 -63 4 -83 26 -125 32 -59 59 -90 106 -120 71 -44 192 -49 267 -10
37 19 60 18 108 -5 22 -11 46 -19 53 -20 6 0 12 -4 12 -10 0 -5 5 -10 12 -10
11 0 48 -17 203 -90 70 -32 187 -86 230 -104 17 -7 46 -20 65 -29 35 -16 64
-28 155 -67 28 -12 59 -25 70 -30 20 -9 97 -41 145 -61 14 -6 38 -17 53 -25
16 -8 33 -14 38 -14 10 0 91 -34 121 -50 10 -6 23 -10 29 -10 6 0 25 -6 42
-14 18 -8 59 -24 92 -36 33 -13 74 -29 92 -36 17 -8 36 -14 42 -14 6 0 19 -4
29 -10 9 -5 89 -32 177 -61 88 -28 175 -59 193 -68 38 -18 37 0 7 -186 -8 -55
-20 -143 -25 -195 -5 -52 -14 -111 -19 -130 -5 -19 -15 -80 -21 -135 -7 -55
-18 -149 -26 -210 -8 -60 -19 -146 -24 -190 -5 -44 -14 -107 -20 -140 -19
-114 -47 -323 -70 -530 -6 -49 -18 -108 -26 -129 -19 -50 -72 -97 -154 -136
-87 -43 -94 -46 -175 -70 -38 -12 -77 -25 -86 -30 -9 -5 -34 -12 -55 -16 -22
-3 -43 -10 -49 -14 -10 -8 -70 -22 -175 -41 -30 -6 -70 -15 -88 -20 -18 -6
-66 -15 -105 -20 -40 -5 -110 -13 -157 -19 -47 -6 -112 -15 -145 -21 -248 -42
-1102 -42 -1350 0 -33 6 -98 15 -145 21 -47 6 -120 15 -163 20 -42 5 -86 14
-97 20 -10 5 -33 10 -50 10 -43 0 -285 61 -322 81 -10 5 -23 9 -29 9 -10 0
-39 11 -114 45 -188 84 -246 132 -265 217 -14 63 -50 331 -80 593 -6 55 -15
114 -20 130 -5 17 -11 66 -15 110 -3 44 -10 100 -16 125 -5 25 -13 83 -19 130
-5 47 -17 135 -25 195 -9 61 -22 160 -29 220 -8 61 -17 124 -20 140 -4 17 -11
66 -16 110 -29 243 -52 412 -70 520 -6 33 -15 96 -20 140 -6 44 -16 130 -24
190 -8 61 -19 155 -26 210 -6 55 -16 116 -21 135 -5 19 -14 73 -19 120 -18
157 -38 315 -44 345 -4 17 -11 66 -16 110 -22 190 -39 312 -45 343 -9 39 1 41
53 10z m4870 -1700 c2 -5 8 -8 13 -8 9 0 79 -47 145 -96 16 -13 45 -42 64 -65
32 -40 32 -43 15 -55 -32 -24 -133 -13 -318 34 -51 13 -52 16 -39 59 6 21 13
67 16 101 3 35 8 68 12 73 5 9 86 -29 92 -43z"/>
</g>
</svg>
