<?xml version="1.0" standalone="no"?>
<!DOCTYPE svg PUBLIC "-//W3C//DTD SVG 20010904//EN"
 "http://www.w3.org/TR/2001/REC-SVG-20010904/DTD/svg10.dtd">
<svg version="1.0" xmlns="http://www.w3.org/2000/svg"
 width="300.000000pt" height="169.000000pt" viewBox="0 0 300.000000 169.000000"
 preserveAspectRatio="xMidYMid meet">
<metadata>
Created by potrace 1.10, written by Peter Selinger 2001-2011
</metadata>
<g transform="translate(0.000000,169.000000) scale(0.050000,-0.050000)"
fill="#ffffff" stroke="none">
<path d="M2397 3082 c-45 -37 -47 -50 -57 -394 l-10 -356 -283 6 c-482 9 -446
93 -447 -1041 l0 -914 52 -61 52 -62 927 0 927 0 56 48 56 48 6 341 7 340 307
7 c293 6 309 8 358 54 l52 49 0 937 0 938 -49 49 -49 49 -929 0 c-884 0 -931
-2 -976 -38z m1878 -997 c4 -716 0 -905 -20 -907 -14 -1 -178 -4 -364 -5
l-339 -3 6 -366 c4 -264 -1 -374 -19 -395 -20 -25 -158 -29 -911 -29 l-887 0
-11 45 c-6 25 -9 432 -6 905 l6 860 365 5 365 6 0 386 c0 213 6 392 14 400 7
7 414 11 905 8 l891 -5 5 -905z"/>
<path d="M2654 2807 c-8 -8 -14 -188 -14 -400 l0 -387 -358 0 c-308 0 -359 -4
-370 -32 -16 -41 -16 -1295 0 -1336 14 -38 79 -43 100 -8 9 13 13 301 10 640
l-5 616 371 0 372 0 0 400 0 399 635 6 635 5 0 50 0 50 -681 5 c-375 3 -688
-1 -695 -8z"/>
<path d="M2964 2496 c-18 -18 -24 -216 -24 -770 l0 -746 -300 0 -300 0 0 310
0 310 240 0 240 0 0 60 0 60 -289 0 c-256 0 -292 -4 -307 -35 -20 -43 -18
-766 3 -801 16 -25 737 -36 801 -12 28 11 32 98 32 771 l0 758 305 -5 305 -6
6 -305 5 -305 -250 0 -251 0 0 -60 0 -60 286 0 c196 0 294 8 310 24 34 34 34
778 0 812 -34 34 -778 34 -812 0z"/>
</g>
</svg>
