<?xml version="1.0" standalone="no"?>
<!DOCTYPE svg PUBLIC "-//W3C//DTD SVG 20010904//EN"
 "http://www.w3.org/TR/2001/REC-SVG-20010904/DTD/svg10.dtd">
<svg version="1.0" xmlns="http://www.w3.org/2000/svg"
 width="300.000000pt" height="300.000000pt" viewBox="0 0 300.000000 300.000000"
 preserveAspectRatio="xMidYMid meet">
<metadata>
Created by potrace 1.10, written by Peter Selinger 2001-2011
</metadata>
<g transform="translate(0.000000,300.000000) scale(0.100000,-0.100000)"
fill="#ffffff" stroke="none">
<path d="M1355 2589 c-705 -89 -1153 -802 -924 -1470 92 -268 299 -504 558
-634 203 -102 231 -92 231 86 l0 106 -87 -4 c-160 -9 -242 33 -306 160 -29 58
-55 91 -98 129 -63 54 -73 77 -36 79 83 4 139 -28 205 -120 61 -83 111 -111
193 -110 92 1 117 15 144 83 13 33 31 66 39 75 14 13 6 17 -75 33 -231 47
-358 164 -405 375 -24 111 -16 259 19 336 14 31 37 72 51 90 25 32 25 35 14
96 -9 48 -9 79 0 133 18 104 24 111 80 103 55 -8 125 -36 202 -81 l56 -32 69
15 c95 22 326 22 422 0 l73 -16 57 35 c68 41 150 73 209 81 l42 6 16 -54 c18
-59 21 -184 6 -224 -9 -23 -6 -32 15 -57 89 -106 115 -279 69 -462 -47 -185
-180 -300 -394 -342 -47 -10 -86 -18 -88 -19 -2 -2 8 -19 22 -39 37 -55 46
-118 46 -320 0 -207 2 -212 69 -203 21 2 76 23 123 44 331 156 566 456 634
811 19 98 18 309 -2 412 -109 575 -662 973 -1249 899z"/>
<path d="M770 1000 c0 -5 7 -10 16 -10 8 0 12 5 9 10 -3 6 -10 10 -16 10 -5 0
-9 -4 -9 -10z"/>
<path d="M816 955 c4 -8 10 -15 15 -15 5 0 9 7 9 15 0 8 -7 15 -15 15 -9 0
-12 -6 -9 -15z"/>
<path d="M862 903 c2 -9 9 -18 16 -21 18 -6 15 25 -4 32 -11 4 -14 1 -12 -11z"/>
<path d="M910 841 c0 -5 6 -14 14 -20 16 -13 32 2 21 19 -8 12 -35 13 -35 1z"/>
<path d="M992 788 c7 -19 38 -22 38 -4 0 10 -9 16 -21 16 -12 0 -19 -5 -17
-12z"/>
<path d="M1167 794 c-14 -14 -7 -25 13 -22 12 2 21 8 21 13 0 12 -24 18 -34 9z"/>
<path d="M1080 775 c0 -8 9 -15 20 -15 11 0 20 7 20 15 0 8 -9 15 -20 15 -11
0 -20 -7 -20 -15z"/>
</g>
</svg>
