<?xml version="1.0" standalone="no"?>
<!DOCTYPE svg PUBLIC "-//W3C//DTD SVG 20010904//EN"
 "http://www.w3.org/TR/2001/REC-SVG-20010904/DTD/svg10.dtd">
<svg version="1.0" xmlns="http://www.w3.org/2000/svg"
 width="300.000000pt" height="370.000000pt" viewBox="0 0 300.000000 370.000000"
 preserveAspectRatio="xMidYMid meet">
<metadata>
Created by potrace 1.10, written by Peter Selinger 2001-2011
</metadata>
<g transform="translate(0.000000,370.000000) scale(0.100000,-0.100000)"
fill="#ffffff" stroke="none">
<path d="M1838 3483 c8 -142 -54 -318 -142 -406 -26 -26 -120 -100 -209 -164
-192 -140 -290 -230 -356 -329 -116 -173 -121 -303 -20 -492 21 -41 59 -99 83
-130 43 -55 226 -242 226 -231 0 3 -17 46 -39 95 -85 197 -131 374 -131 503 0
68 3 82 29 122 35 55 101 118 256 245 216 177 290 259 346 379 57 122 50 294
-17 427 -13 26 -26 48 -27 48 -1 0 -1 -30 1 -67z"/>
<path d="M2030 2791 c-246 -110 -449 -262 -509 -380 -31 -59 -36 -123 -17
-211 19 -88 53 -162 107 -231 81 -101 89 -118 89 -178 0 -33 -10 -84 -24 -124
l-24 -67 40 32 c53 41 115 121 144 183 49 105 29 204 -74 363 -70 108 -78 172
-33 265 26 54 141 174 271 281 109 91 126 106 120 106 -3 0 -43 -18 -90 -39z"/>
<path d="M2410 1715 c-30 -7 -71 -20 -90 -28 l-35 -15 30 -6 c105 -21 165 -40
200 -64 77 -54 97 -130 56 -216 -29 -59 -138 -176 -240 -256 -45 -35 -79 -65
-77 -68 9 -9 174 52 259 96 153 78 247 188 247 288 0 57 -32 157 -65 199 -54
72 -169 100 -285 70z"/>
<path d="M875 1673 c-154 -14 -306 -56 -340 -93 -31 -35 -24 -79 20 -116 82
-72 252 -104 578 -111 335 -8 571 18 781 84 86 27 242 98 253 116 4 7 0 8 -12
4 -9 -4 -56 -14 -104 -22 -383 -67 -1187 -70 -1291 -5 -39 25 57 84 201 125
l84 24 -65 -1 c-36 -1 -83 -3 -105 -5z"/>
<path d="M833 1241 c-151 -72 -61 -158 213 -206 126 -22 363 -23 535 -1 139
17 391 62 453 80 l40 12 -67 47 -67 48 -103 -20 c-196 -39 -344 -54 -552 -53
-202 0 -350 17 -381 43 -19 16 -18 56 4 68 39 23 -15 10 -75 -18z"/>
<path d="M930 894 c-50 -22 -70 -43 -70 -76 0 -42 15 -64 63 -92 138 -81 582
-111 835 -57 116 25 263 71 257 81 -2 4 -42 29 -87 57 l-83 50 -135 -24 c-166
-31 -400 -34 -551 -9 -133 22 -152 30 -147 61 5 22 2 25 -21 25 -14 -1 -42 -8
-61 -16z"/>
<path d="M600 659 c-297 -28 -418 -99 -335 -197 63 -75 268 -121 635 -142 670
-38 1327 32 1602 171 86 43 107 85 67 130 -11 13 -18 18 -14 12 11 -22 -15
-54 -58 -73 -144 -63 -510 -119 -919 -140 -483 -25 -1125 46 -1136 126 -5 34
41 56 238 112 41 12 33 12 -80 1z"/>
<path d="M2690 429 c-68 -57 -271 -137 -428 -168 -192 -39 -331 -46 -917 -45
-596 0 -609 -2 -305 -40 391 -50 786 -48 1155 5 230 32 346 71 443 148 26 21
57 57 70 79 26 46 20 52 -18 21z"/>
</g>
</svg>
