<?xml version="1.0" standalone="no"?>
<!DOCTYPE svg PUBLIC "-//W3C//DTD SVG 20010904//EN"
 "http://www.w3.org/TR/2001/REC-SVG-20010904/DTD/svg10.dtd">
<svg version="1.0" xmlns="http://www.w3.org/2000/svg"
 width="900.000000pt" height="504.000000pt" viewBox="0 0 900.000000 504.000000"
 preserveAspectRatio="xMidYMid meet">
<metadata>
Created by potrace 1.10, written by Peter Selinger 2001-2011
</metadata>
<g transform="translate(0.000000,504.000000) scale(0.100000,-0.100000)"
fill="#ffffff" stroke="none">
<path d="M2842 3648 c-9 -9 -12 -221 -12 -892 0 -485 4 -887 8 -894 7 -9 46
-12 163 -10 l154 3 3 894 c2 709 0 896 -10 903 -21 13 -292 10 -306 -4z"/>
<path d="M6192 3652 c-10 -7 -12 -194 -10 -903 l3 -894 160 0 160 0 2 305 c1
168 5 307 10 310 4 2 42 -41 83 -97 87 -117 268 -366 342 -470 28 -40 59 -73
67 -73 9 0 41 9 71 21 30 11 69 25 85 29 75 22 125 43 125 54 0 15 -88 130
-205 271 -116 139 -265 329 -265 337 0 6 12 24 26 42 25 29 276 295 337 357
33 34 35 65 5 74 -13 4 -36 13 -53 20 -132 61 -139 63 -162 52 -13 -5 -23 -13
-23 -16 0 -4 -10 -17 -23 -31 -13 -14 -50 -56 -82 -95 -33 -38 -65 -76 -71
-83 -7 -7 -61 -68 -120 -137 -66 -77 -114 -125 -125 -125 -18 0 -19 19 -19
518 0 390 -3 521 -12 530 -14 14 -285 17 -306 4z"/>
<path d="M7605 3354 c-25 -25 -33 -58 -16 -69 6 -3 13 11 17 30 5 26 11 35 23
33 13 -3 15 -14 13 -61 -3 -37 0 -57 7 -57 7 0 14 7 17 15 8 20 30 19 38 -1
10 -25 19 -9 19 33 0 20 -5 39 -11 41 -7 2 -12 -3 -12 -12 0 -9 -7 -16 -15
-16 -8 0 -15 7 -15 15 0 9 7 18 15 21 23 9 18 19 -20 37 -34 16 -35 16 -60 -9z"/>
<path d="M7712 3373 c-18 -7 -4 -23 19 -23 12 0 19 5 17 12 -5 14 -18 18 -36
11z"/>
<path d="M7763 3307 c9 -55 -2 -88 -34 -99 -36 -12 -38 -28 -4 -28 14 0 25 6
25 13 0 7 9 18 20 25 29 18 27 122 -2 122 -6 0 -8 -14 -5 -33z"/>
<path d="M7585 3258 c-8 -21 0 -48 15 -48 12 0 12 17 0 45 -7 18 -8 19 -15 3z"/>
<path d="M7620 3190 c0 -5 12 -10 26 -10 14 0 23 4 19 10 -3 6 -15 10 -26 10
-10 0 -19 -4 -19 -10z"/>
<path d="M725 3093 c-127 -40 -200 -96 -245 -188 -29 -59 -38 -164 -20 -222
28 -88 124 -191 275 -293 75 -51 144 -111 165 -146 14 -21 20 -49 20 -85 0
-46 -4 -59 -29 -86 -53 -58 -129 -76 -215 -51 -43 13 -151 72 -161 88 -14 22
-42 7 -70 -37 -67 -109 -67 -110 -45 -131 27 -25 155 -87 219 -106 35 -10 92
-16 165 -16 122 0 198 18 289 67 49 27 147 126 147 149 0 6 7 25 15 40 10 19
15 58 15 117 0 73 -4 95 -24 135 -29 56 -129 155 -243 241 -45 34 -112 90
-148 124 -62 59 -65 65 -65 109 0 40 4 50 35 77 53 47 105 57 185 35 36 -9 74
-23 85 -31 35 -23 60 -16 88 28 15 22 27 44 27 49 0 4 7 13 15 20 26 21 17 36
-41 64 -129 63 -324 85 -439 49z"/>
<path d="M1989 3090 c-87 -28 -138 -58 -196 -113 -29 -27 -57 -47 -61 -43 -4
4 -9 38 -12 74 l-5 67 -155 0 -155 0 0 -920 0 -920 155 0 155 0 3 368 c2 285
5 369 15 373 7 2 37 -18 67 -46 30 -27 59 -50 65 -50 6 0 16 -5 22 -11 29 -29
118 -49 213 -49 160 0 282 51 396 164 128 128 193 299 194 506 0 310 -142 522
-404 604 -70 22 -225 20 -297 -4z m183 -208 c134 -83 195 -272 163 -504 -21
-153 -57 -237 -132 -305 -83 -76 -228 -82 -328 -14 -40 27 -102 112 -124 171
-22 58 -33 178 -26 291 11 199 93 337 225 380 46 16 185 3 222 -19z"/>
<path d="M5375 3093 c-75 -23 -114 -43 -182 -95 -35 -27 -67 -48 -72 -48 -5 0
-13 21 -16 48 -3 26 -7 54 -8 62 -2 12 -28 15 -151 18 -101 2 -153 -1 -162 -9
-12 -10 -14 -111 -14 -604 0 -493 2 -594 14 -604 9 -8 61 -11 162 -9 l149 3 7
390 c3 215 10 410 15 435 29 145 169 230 329 200 55 -11 71 -19 107 -55 70
-70 70 -70 76 -545 l6 -425 160 0 160 0 0 445 c0 487 -3 517 -58 620 -68 127
-194 191 -376 189 -57 0 -116 -7 -146 -16z"/>
<path d="M3374 3055 c-4 -15 -4 -227 -1 -473 4 -416 6 -451 25 -503 26 -74 39
-96 87 -147 72 -78 170 -112 319 -112 149 0 231 29 344 120 34 27 64 50 67 50
2 0 5 -30 7 -67 l3 -68 163 -3 162 -2 -2 612 -3 613 -160 0 -160 0 -5 -415
c-5 -397 -6 -417 -26 -461 -38 -80 -94 -127 -176 -147 -62 -16 -103 -15 -163
3 -56 17 -95 51 -127 109 -22 40 -23 50 -28 476 l-5 435 -157 3 -157 3 -7 -26z"/>
<path d="M7608 3033 c-2 -5 -2 -47 0 -94 l3 -86 67 -32 c37 -18 74 -37 82 -42
8 -5 22 -12 30 -15 8 -4 97 -46 197 -95 100 -49 189 -89 197 -89 8 0 17 -4 20
-9 9 -13 89 -51 109 -51 17 0 37 -29 37 -52 0 -7 -78 -50 -173 -96 -94 -46
-179 -87 -187 -93 -8 -5 -22 -12 -30 -15 -8 -3 -22 -10 -30 -15 -8 -5 -22 -12
-30 -15 -8 -3 -22 -10 -30 -15 -8 -5 -22 -12 -30 -15 -45 -17 -222 -109 -227
-117 -3 -6 -6 -44 -6 -86 1 -67 3 -76 20 -79 11 -2 26 4 33 13 7 8 21 15 31
15 10 0 20 4 23 9 4 5 27 19 54 31 26 12 54 26 62 31 8 5 22 12 30 15 8 3 22
10 30 15 8 5 22 12 30 15 8 3 22 10 30 15 8 5 22 12 30 15 8 4 142 70 298 147
l282 140 0 87 c0 71 -3 90 -18 103 -10 10 -26 17 -34 17 -9 0 -21 7 -28 15 -7
8 -20 15 -29 15 -9 1 -34 12 -56 25 -22 14 -47 27 -55 31 -8 3 -22 10 -30 15
-8 5 -22 12 -30 15 -20 9 -151 73 -170 84 -8 5 -49 25 -90 45 -76 37 -96 47
-127 65 -10 6 -27 14 -38 19 -74 34 -92 42 -105 50 -8 5 -22 12 -30 15 -8 4
-35 17 -59 31 -50 28 -49 28 -53 18z"/>
</g>
</svg>
